<svg width="34" height="24" viewBox="0 0 34 24" fill="none" xmlns="http://www.w3.org/2000/svg">
    <rect x="0.5" y="0.5" width="33" height="23" rx="3.5" fill="white"/>
    <rect x="0.5" y="0.5" width="33" height="23" rx="3.5" stroke="#F2F4F7"/>
    <path fill-rule="evenodd" clip-rule="evenodd" d="M15.8378 19.3H18.4338C22.4863 19.3 25.7155 16.085 25.8422 12.1135V12.0504C25.7789 8.0159 22.4863 4.73784 18.4338 4.80088H15.5212C11.6587 4.92696 8.61937 8.20502 8.74601 12.1135C8.74601 16.0219 11.912 19.2369 15.8378 19.3ZM10.0124 12.0504C10.0124 8.77235 12.7351 6.06165 16.0277 6.06165C19.3203 6.06165 22.043 8.77235 22.043 12.0504C22.043 15.3285 19.3203 18.0392 16.0277 18.0392C12.7351 18.0392 10.0124 15.3285 10.0124 12.0504ZM16.9775 16.0849V8.07892C19.1937 8.64627 20.5867 10.8527 20.0168 13.059C19.6369 14.572 18.4972 15.7067 16.9775 16.0849ZM12.1019 11.0418C11.5321 13.2482 12.8618 15.5176 15.0779 16.0849V8.07892C13.6216 8.45716 12.4818 9.59187 12.1019 11.0418Z" fill="#0079BE"/>
</svg>
