<svg width="19" height="19" viewBox="0 0 19 19" fill="none" xmlns="http://www.w3.org/2000/svg">
<g id="Favicon">
<g id="Icon">
<path d="M9.75 10.2686C10.1642 10.2686 10.5 9.93277 10.5 9.51855C10.5 9.10434 10.1642 8.76855 9.75 8.76855C9.33579 8.76855 9 9.10434 9 9.51855C9 9.93277 9.33579 10.2686 9.75 10.2686Z" fill="black" fill-opacity="0.9"/>
<path d="M15 10.2686C15.4142 10.2686 15.75 9.93277 15.75 9.51855C15.75 9.10434 15.4142 8.76855 15 8.76855C14.5858 8.76855 14.25 9.10434 14.25 9.51855C14.25 9.93277 14.5858 10.2686 15 10.2686Z" fill="black" fill-opacity="0.9"/>
<path d="M4.5 10.2686C4.91421 10.2686 5.25 9.93277 5.25 9.51855C5.25 9.10434 4.91421 8.76855 4.5 8.76855C4.08579 8.76855 3.75 9.10434 3.75 9.51855C3.75 9.93277 4.08579 10.2686 4.5 10.2686Z" fill="black" fill-opacity="0.9"/>
<path d="M9.75 10.2686C10.1642 10.2686 10.5 9.93277 10.5 9.51855C10.5 9.10434 10.1642 8.76855 9.75 8.76855C9.33579 8.76855 9 9.10434 9 9.51855C9 9.93277 9.33579 10.2686 9.75 10.2686Z" stroke="black" stroke-opacity="0.9" stroke-linecap="round" stroke-linejoin="round"/>
<path d="M15 10.2686C15.4142 10.2686 15.75 9.93277 15.75 9.51855C15.75 9.10434 15.4142 8.76855 15 8.76855C14.5858 8.76855 14.25 9.10434 14.25 9.51855C14.25 9.93277 14.5858 10.2686 15 10.2686Z" stroke="black" stroke-opacity="0.9" stroke-linecap="round" stroke-linejoin="round"/>
<path d="M4.5 10.2686C4.91421 10.2686 5.25 9.93277 5.25 9.51855C5.25 9.10434 4.91421 8.76855 4.5 8.76855C4.08579 8.76855 3.75 9.10434 3.75 9.51855C3.75 9.93277 4.08579 10.2686 4.5 10.2686Z" stroke="black" stroke-opacity="0.9" stroke-linecap="round" stroke-linejoin="round"/>
</g>
</g>
</svg>
