<svg width="34" height="24" viewBox="0 0 34 24" fill="none" xmlns="http://www.w3.org/2000/svg">
    <rect x="0.5" y="0.5" width="33" height="23" rx="3.5" fill="white"/>
    <rect x="0.5" y="0.5" width="33" height="23" rx="3.5" stroke="#F2F4F7"/>
    <path fill-rule="evenodd" clip-rule="evenodd" d="M16.0574 15.528V12.5934H17.572C18.1927 12.5934 18.7165 12.3854 19.1436 11.9752L19.2461 11.8712C20.0262 11.022 19.9749 9.69914 19.1436 8.91349C18.7279 8.49755 18.1585 8.27226 17.572 8.28381H15.1406V15.528H16.0574ZM16.0575 11.7037V9.17339H17.5951C17.9254 9.17339 18.2387 9.30048 18.4722 9.53156C18.9676 10.0168 18.979 10.8256 18.5006 11.3282C18.2671 11.5766 17.9368 11.7152 17.5951 11.7037H16.0575ZM23.5223 10.9585C23.1295 10.5945 22.5942 10.4097 21.9166 10.4097C21.0454 10.4097 20.3906 10.7332 19.9578 11.3744L20.7664 11.8886C21.0625 11.4495 21.4668 11.23 21.9792 11.23C22.3038 11.23 22.617 11.3513 22.8618 11.5708C23.101 11.7788 23.2376 12.0792 23.2376 12.3969V12.6107C22.8846 12.4142 22.4405 12.3103 21.8938 12.3103C21.2561 12.3103 20.7436 12.4605 20.3621 12.7666C19.9806 13.0728 19.787 13.4772 19.787 13.9913C19.7756 14.4593 19.9749 14.9041 20.328 15.2045C20.6867 15.528 21.1422 15.6897 21.6775 15.6897C22.3095 15.6897 22.8106 15.4067 23.1921 14.8405H23.2319V15.528H24.1088V12.472C24.1088 11.8308 23.9152 11.3224 23.5223 10.9585ZM21.0342 14.6153C20.8462 14.4766 20.7323 14.2513 20.7323 14.0087C20.7323 13.7372 20.8576 13.5119 21.1025 13.3328C21.3531 13.1537 21.6663 13.0613 22.0365 13.0613C22.5491 13.0555 22.9477 13.171 23.2324 13.4021C23.2324 13.7949 23.0787 14.1358 22.7768 14.4246C22.5035 14.7019 22.1333 14.8579 21.7461 14.8579C21.4898 14.8637 21.2392 14.777 21.0342 14.6153ZM26.079 17.7059L29.1424 10.5714H28.146L26.7281 14.13H26.711L25.2591 10.5714H24.2626L26.2726 15.2102L25.1338 17.7059H26.079Z" fill="#3C4043"/>
    <path d="M12.8916 11.9579C12.8916 11.6748 12.8689 11.3917 12.8233 11.1144H8.95703V12.7146H11.172C11.0809 13.2288 10.7848 13.6909 10.3521 13.9798V15.0196H11.6731C12.4475 14.2975 12.8916 13.2288 12.8916 11.9579Z" fill="#4285F4"/>
    <path d="M8.95817 16.0248C10.0628 16.0248 10.9967 15.6551 11.6743 15.0196L10.3532 13.9798C9.98311 14.234 9.5105 14.3784 8.95817 14.3784C7.88768 14.3784 6.98232 13.6447 6.65776 12.6627H5.29688V13.7372C5.99155 15.1409 7.40938 16.0248 8.95817 16.0248Z" fill="#34A853"/>
    <path d="M6.65651 12.6627C6.48566 12.1486 6.48566 11.5882 6.65651 11.0683V9.99957H5.29541C4.70882 11.1723 4.70882 12.5587 5.29541 13.7314L6.65651 12.6627Z" fill="#FBBC04"/>
    <path d="M8.95817 9.35253C9.54466 9.34098 10.1084 9.56628 10.5297 9.97643L11.7027 8.7864C10.9568 8.08162 9.97741 7.69457 8.95817 7.70612C7.40938 7.70612 5.99155 8.59576 5.29688 9.99954L6.65776 11.074C6.98232 10.0862 7.88768 9.35253 8.95817 9.35253Z" fill="#EA4335"/>
</svg>
