<svg width="27" height="27" viewBox="0 0 27 27" fill="none" xmlns="http://www.w3.org/2000/svg">
<g id="Icon">
<path d="M8.825 1.51855H3.75833C3.0116 1.51855 2.63823 1.51855 2.35301 1.66388C2.10213 1.79171 1.89816 1.99568 1.77032 2.24657C1.625 2.53178 1.625 2.90515 1.625 3.65189V8.71855C1.625 9.46529 1.625 9.83866 1.77032 10.1239C1.89816 10.3748 2.10213 10.5787 2.35301 10.7066C2.63823 10.8519 3.0116 10.8519 3.75833 10.8519H8.825C9.57174 10.8519 9.9451 10.8519 10.2303 10.7066C10.4812 10.5787 10.6852 10.3748 10.813 10.1239C10.9583 9.83866 10.9583 9.46529 10.9583 8.71855V3.65189C10.9583 2.90515 10.9583 2.53178 10.813 2.24657C10.6852 1.99568 10.4812 1.79171 10.2303 1.66388C9.9451 1.51855 9.57174 1.51855 8.825 1.51855Z" fill="black" fill-opacity="0.7"/>
<path d="M23.4917 1.51855H18.425C17.6783 1.51855 17.3049 1.51855 17.0197 1.66388C16.7688 1.79171 16.5648 1.99568 16.437 2.24657C16.2917 2.53178 16.2917 2.90515 16.2917 3.65189V8.71855C16.2917 9.46529 16.2917 9.83866 16.437 10.1239C16.5648 10.3748 16.7688 10.5787 17.0197 10.7066C17.3049 10.8519 17.6783 10.8519 18.425 10.8519H23.4917C24.2384 10.8519 24.6118 10.8519 24.897 10.7066C25.1479 10.5787 25.3518 10.3748 25.4797 10.1239C25.625 9.83866 25.625 9.46529 25.625 8.71855V3.65189C25.625 2.90515 25.625 2.53178 25.4797 2.24657C25.3518 1.99568 25.1479 1.79171 24.897 1.66388C24.6118 1.51855 24.2384 1.51855 23.4917 1.51855Z" fill="black" fill-opacity="0.7"/>
<path d="M23.4917 16.1852H18.425C17.6783 16.1852 17.3049 16.1852 17.0197 16.3305C16.7688 16.4584 16.5648 16.6624 16.437 16.9132C16.2917 17.1984 16.2917 17.5718 16.2917 18.3186V23.3852C16.2917 24.132 16.2917 24.5053 16.437 24.7905C16.5648 25.0414 16.7688 25.2454 17.0197 25.3732C17.3049 25.5186 17.6783 25.5186 18.425 25.5186H23.4917C24.2384 25.5186 24.6118 25.5186 24.897 25.3732C25.1479 25.2454 25.3518 25.0414 25.4797 24.7905C25.625 24.5053 25.625 24.132 25.625 23.3852V18.3186C25.625 17.5718 25.625 17.1984 25.4797 16.9132C25.3518 16.6624 25.1479 16.4584 24.897 16.3305C24.6118 16.1852 24.2384 16.1852 23.4917 16.1852Z" fill="black" fill-opacity="0.7"/>
<path d="M8.825 16.1852H3.75833C3.0116 16.1852 2.63823 16.1852 2.35301 16.3305C2.10213 16.4584 1.89816 16.6624 1.77032 16.9132C1.625 17.1984 1.625 17.5718 1.625 18.3186V23.3852C1.625 24.132 1.625 24.5053 1.77032 24.7905C1.89816 25.0414 2.10213 25.2454 2.35301 25.3732C2.63823 25.5186 3.0116 25.5186 3.75833 25.5186H8.825C9.57174 25.5186 9.9451 25.5186 10.2303 25.3732C10.4812 25.2454 10.6852 25.0414 10.813 24.7905C10.9583 24.5053 10.9583 24.132 10.9583 23.3852V18.3186C10.9583 17.5718 10.9583 17.1984 10.813 16.9132C10.6852 16.6624 10.4812 16.4584 10.2303 16.3305C9.9451 16.1852 9.57174 16.1852 8.825 16.1852Z" fill="black" fill-opacity="0.7"/>
<path d="M8.825 1.01855H3.75833L3.73804 1.01855C3.38194 1.01855 3.08471 1.01854 2.84189 1.03838C2.58863 1.05907 2.35086 1.10381 2.12602 1.21838C1.78105 1.39414 1.50059 1.67461 1.32482 2.01957C1.21026 2.24441 1.16552 2.48218 1.14483 2.73544C1.12499 2.97826 1.12499 3.2755 1.125 3.6316L1.125 3.65189V8.71855L1.125 8.73884C1.12499 9.09495 1.12499 9.39218 1.14483 9.635C1.16552 9.88826 1.21026 10.126 1.32482 10.3509C1.50059 10.6958 1.78105 10.9763 2.12602 11.1521C2.35086 11.2666 2.58863 11.3114 2.84189 11.3321C3.08471 11.3519 3.38193 11.3519 3.73803 11.3519H3.75833H8.825H8.8453C9.2014 11.3519 9.49863 11.3519 9.74145 11.3321C9.9947 11.3114 10.2325 11.2666 10.4573 11.1521C10.8023 10.9763 11.0827 10.6958 11.2585 10.3509C11.3731 10.126 11.4178 9.88826 11.4385 9.635C11.4583 9.39218 11.4583 9.09495 11.4583 8.73886V8.71855V3.65189V3.63159C11.4583 3.27549 11.4583 2.97826 11.4385 2.73544C11.4178 2.48218 11.3731 2.24441 11.2585 2.01957C11.0827 1.67461 10.8023 1.39414 10.4573 1.21838C10.2325 1.10381 9.9947 1.05907 9.74145 1.03838C9.49862 1.01854 9.20139 1.01855 8.84529 1.01855L8.825 1.01855ZM23.4917 1.01855H18.425L18.4047 1.01855C18.0486 1.01855 17.7514 1.01854 17.5086 1.03838C17.2553 1.05907 17.0175 1.10381 16.7927 1.21838C16.4477 1.39414 16.1673 1.67461 15.9915 2.01957C15.8769 2.24441 15.8322 2.48218 15.8115 2.73544C15.7917 2.97826 15.7917 3.27549 15.7917 3.63159V3.65189V8.71855V8.73886C15.7917 9.09495 15.7917 9.39218 15.8115 9.635C15.8322 9.88826 15.8769 10.126 15.9915 10.3509C16.1673 10.6958 16.4477 10.9763 16.7927 11.1521C17.0175 11.2666 17.2553 11.3114 17.5086 11.3321C17.7514 11.3519 18.0486 11.3519 18.4047 11.3519H18.425H23.4917H23.512C23.8681 11.3519 24.1653 11.3519 24.4081 11.3321C24.6614 11.3114 24.8991 11.2666 25.124 11.1521C25.469 10.9763 25.7494 10.6958 25.9252 10.3509C26.0397 10.126 26.0845 9.88826 26.1052 9.635C26.125 9.39218 26.125 9.09495 26.125 8.73886V8.71855V3.65189V3.63159C26.125 3.27549 26.125 2.97826 26.1052 2.73544C26.0845 2.48218 26.0397 2.24441 25.9252 2.01957C25.7494 1.67461 25.469 1.39414 25.124 1.21838C24.8991 1.10381 24.6614 1.05907 24.4081 1.03838C24.1653 1.01854 23.8681 1.01855 23.512 1.01855L23.4917 1.01855ZM23.4917 15.6852H18.425H18.4047C18.0486 15.6852 17.7514 15.6852 17.5086 15.705C17.2553 15.7257 17.0175 15.7705 16.7927 15.885C16.4477 16.0608 16.1673 16.3413 15.9915 16.6862C15.8769 16.9111 15.8322 17.1489 15.8115 17.4021C15.7917 17.6449 15.7917 17.9422 15.7917 18.2983V18.3186V23.3852V23.4055C15.7917 23.7616 15.7917 24.0588 15.8115 24.3017C15.8322 24.5549 15.8769 24.7927 15.9915 25.0175C16.1673 25.3625 16.4477 25.643 16.7927 25.8187C17.0175 25.9333 17.2553 25.978 17.5086 25.9987C17.7514 26.0186 18.0486 26.0186 18.4047 26.0186H18.425H23.4917H23.512C23.8681 26.0186 24.1653 26.0186 24.4081 25.9987C24.6614 25.978 24.8991 25.9333 25.124 25.8187C25.4689 25.643 25.7494 25.3625 25.9252 25.0175C26.0397 24.7927 26.0845 24.5549 26.1052 24.3017C26.125 24.0588 26.125 23.7616 26.125 23.4055V23.3852V18.3186V18.2983C26.125 17.9422 26.125 17.6449 26.1052 17.4021C26.0845 17.1489 26.0397 16.9111 25.9252 16.6862C25.7494 16.3413 25.469 16.0608 25.124 15.885C24.8991 15.7705 24.6614 15.7257 24.4081 15.705C24.1653 15.6852 23.8681 15.6852 23.512 15.6852H23.4917ZM8.825 15.6852H3.75833H3.73803C3.38193 15.6852 3.08471 15.6852 2.84189 15.705C2.58863 15.7257 2.35086 15.7705 2.12602 15.885C1.78105 16.0608 1.50059 16.3413 1.32482 16.6862C1.21026 16.9111 1.16552 17.1489 1.14483 17.4021C1.12499 17.6449 1.12499 17.9422 1.125 18.2983L1.125 18.3186V23.3852L1.125 23.4055C1.12499 23.7616 1.12499 24.0588 1.14483 24.3017C1.16552 24.5549 1.21026 24.7927 1.32482 25.0175C1.50059 25.3625 1.78106 25.643 2.12602 25.8187C2.35086 25.9333 2.58863 25.978 2.84189 25.9987C3.08471 26.0186 3.38193 26.0186 3.73803 26.0186H3.75833H8.825H8.8453C9.2014 26.0186 9.49863 26.0186 9.74145 25.9987C9.9947 25.978 10.2325 25.9333 10.4573 25.8187C10.8023 25.643 11.0827 25.3625 11.2585 25.0175C11.3731 24.7927 11.4178 24.5549 11.4385 24.3017C11.4583 24.0588 11.4583 23.7616 11.4583 23.4055V23.3852V18.3186V18.2983C11.4583 17.9422 11.4583 17.6449 11.4385 17.4021C11.4178 17.1489 11.3731 16.9111 11.2585 16.6862C11.0827 16.3413 10.8023 16.0608 10.4573 15.885C10.2325 15.7705 9.9947 15.7257 9.74145 15.705C9.49863 15.6852 9.2014 15.6852 8.8453 15.6852H8.825Z" stroke="black" stroke-opacity="0.7" stroke-miterlimit="16" stroke-linecap="round"/>
</g>
</svg>
