<svg width="44" height="14" viewBox="0 0 44 14" fill="none" xmlns="http://www.w3.org/2000/svg">
<g id="Layer-1">
<path id="Union" fill-rule="evenodd" clip-rule="evenodd" d="M42.2548 0.5C42.6266 0.5 42.9338 0.578618 43.1764 0.736524C43.419 0.89376 43.5403 1.11441 43.5403 1.39729C43.5403 1.63195 43.4635 1.83978 43.3099 2.02206C43.1563 2.20366 42.9558 2.34323 42.7095 2.44018C42.4627 2.53706 42.1939 2.58587 41.9031 2.58587C41.5312 2.58587 41.2241 2.50479 40.9815 2.34323C40.7389 2.18175 40.6176 1.96289 40.6176 1.68799C40.6176 1.42165 40.7066 1.201 40.8846 1.0273C41.0619 0.85352 41.2783 0.722515 41.5331 0.632868C41.7879 0.544488 42.0281 0.5 42.2548 0.5ZM42.2304 3.37399C42.5699 3.37399 42.8064 3.44649 42.9399 3.59218C43.0734 3.73786 43.1398 3.96403 43.1398 4.2712C43.1398 4.39251 43.1093 4.59059 43.0491 4.86556C42.9887 5.14039 42.9137 5.4641 42.8247 5.83588C42.7357 6.20773 42.6467 6.59784 42.5578 7.0062C42.4688 7.41464 42.3944 7.81444 42.3334 8.20641C42.2731 8.5989 42.2426 8.94818 42.2426 9.25542C42.2426 9.49798 42.2731 9.71438 42.3334 9.90456C42.3944 10.0947 42.4888 10.2459 42.6187 10.3593C42.1658 10.7555 41.6849 10.9536 41.1753 10.9536C40.6578 10.9536 40.2903 10.8243 40.072 10.5653C39.8532 10.3069 39.7441 9.93504 39.7441 9.44984C39.7441 9.27189 39.7685 9.02314 39.8172 8.70375C39.8655 8.38436 39.9301 8.02906 40.0111 7.63649C40.0915 7.24452 40.1769 6.84651 40.2659 6.44239C40.3549 6.03768 40.4396 5.65793 40.5207 5.30195L39.8417 4.28342C40.2696 4.02499 40.6779 3.80858 41.0662 3.63488C41.4545 3.46117 41.8421 3.37399 42.2304 3.37399ZM38.3754 5.30337C38.5333 5.10165 38.6119 4.83889 38.6119 4.51526C38.6119 4.18365 38.5065 3.9112 38.2968 3.69666C38.0865 3.48272 37.7671 3.37541 37.3386 3.37541C37.0393 3.37541 36.7644 3.45649 36.5139 3.61797C36.2634 3.77953 36.0732 3.98192 35.944 4.22448C35.677 4.20801 35.3332 4.15742 34.9132 4.07269C34.4927 3.98796 34.0581 3.87648 33.6095 3.73929C33.1609 3.60158 32.7543 3.46014 32.3904 3.31445C32.3502 3.56558 32.3178 3.77342 32.2935 3.93922C32.2691 4.10503 32.2569 4.26472 32.2569 4.41831C32.2569 4.76579 32.3318 5.05895 32.4818 5.29726C32.6312 5.53625 32.8981 5.7221 33.2821 5.85564C33.6662 5.9885 34.2055 6.06772 34.901 6.09208C34.901 6.09208 35.246 6.09209 35.4405 6.06712C35.282 6.09641 34.826 6.21646 34.3561 6.66998L32.9121 8.20232C32.419 8.25844 32.0551 8.44063 31.8205 8.74788C31.5858 9.05505 31.4688 9.37444 31.4688 9.70605C31.4688 10.0047 31.5657 10.2742 31.7601 10.5125C31.9539 10.7508 32.2367 10.8703 32.6086 10.8703C32.8433 10.8703 33.0658 10.8294 33.2761 10.7489C33.4857 10.6679 33.7124 10.5344 33.9551 10.3485C34.3836 10.5106 34.7938 10.6515 35.1857 10.7727C35.5782 10.894 36.0043 10.955 36.4651 10.955C36.8126 10.955 37.1301 10.8922 37.4172 10.7667C37.7043 10.6417 37.9347 10.468 38.1084 10.2455C38.2822 10.0231 38.3693 9.76641 38.3693 9.47563C38.3693 9.25684 38.3449 9.04901 38.2968 8.85086C38.248 8.65279 38.1877 8.46075 38.1145 8.27483L36.4651 8.91733C36.2713 8.90936 36.0689 8.88134 35.8593 8.83261C35.6484 8.78447 35.4344 8.72776 35.2162 8.66315L37.7268 5.78857C38.0011 5.66725 38.2176 5.50577 38.3754 5.30337ZM8.19759 3.75012C8.02388 3.49959 7.75077 3.37402 7.37959 3.37402C7.16073 3.37402 6.91452 3.41672 6.63962 3.50145C6.36472 3.58618 6.08557 3.71778 5.8027 3.89521C5.85151 3.99268 5.89354 4.10185 5.93013 4.2231C5.96672 4.34441 5.98497 4.49375 5.98497 4.67178C5.98497 4.97105 5.94414 5.31234 5.86366 5.69634C5.78258 6.08041 5.6796 6.48088 5.55403 6.89715C5.42847 7.31349 5.29314 7.72371 5.14805 8.12783C5.03777 8.43381 4.93173 8.72637 4.83053 9.00492C4.77322 9.16283 4.62389 9.26768 4.45562 9.26768C4.23497 9.26768 4.05643 9.08965 4.05643 8.87146V8.85618C4.05948 8.79158 4.06127 8.72637 4.06254 8.66176C4.06678 8.45937 4.06857 8.31011 4.06857 8.21256C4.06857 7.52557 4.04242 6.88925 3.98996 6.30286C3.93697 5.71646 3.84189 5.20325 3.7047 4.76254C3.56699 4.32183 3.3713 3.98054 3.11652 3.7379C2.86174 3.49534 2.53259 3.37402 2.12847 3.37402C1.79687 3.37402 1.52383 3.41672 1.30989 3.50145C1.09527 3.58618 0.891089 3.71778 0.697266 3.89521C0.931329 4.08173 1.13797 4.35604 1.31592 4.71992C1.49335 5.08379 1.61094 5.54097 1.66765 6.09077C1.71579 6.5595 1.74813 7.08121 1.7646 7.65478C1.7804 8.22903 1.81699 8.78308 1.87369 9.31641C1.91394 9.737 2.06327 10.0583 2.3223 10.2807C2.58073 10.5032 2.92024 10.6141 3.34082 10.6141C3.50238 10.6141 3.67243 10.5976 3.85038 10.5654C4.02774 10.533 4.21791 10.4806 4.4203 10.4081C4.24235 10.8689 4.00762 11.2041 3.71692 11.4144C3.42555 11.6247 3.12263 11.7296 2.80749 11.7296C2.54049 11.7296 2.27781 11.6589 2.01938 11.5174C1.76028 11.3761 1.53784 11.1719 1.35191 10.9049C1.19833 11.131 1.08558 11.3456 1.01241 11.5479C0.939899 11.7497 0.90331 11.9399 0.90331 12.1178C0.90331 12.5543 1.09348 12.8938 1.47323 13.1363C1.85357 13.379 2.3223 13.5003 2.88 13.5003C3.40543 13.5003 3.929 13.3668 4.45078 13.0998C4.97197 12.8334 5.47296 12.3806 5.9545 11.7418C6.43544 11.1029 6.87003 10.2258 7.25828 9.11037C7.34666 8.85134 7.45821 8.5362 7.59168 8.16442C7.72521 7.79257 7.85808 7.39821 7.99154 6.98187C8.12508 6.56561 8.23597 6.16142 8.32502 5.76892C8.41399 5.37695 8.45848 5.03141 8.45848 4.73206C8.45848 4.32795 8.37189 4.00066 8.19759 3.75012ZM17.1794 3.57396C17.0215 3.44049 16.7612 3.37402 16.3974 3.37402C15.9847 3.37402 15.5806 3.45875 15.1843 3.6288C14.7881 3.79826 14.4163 4.00856 14.0689 4.25909L14.7961 5.22948C14.748 5.4233 14.693 5.65983 14.6328 5.93898C14.5718 6.21753 14.5072 6.5089 14.4389 6.81182C14.37 7.11534 14.309 7.4 14.2567 7.66701C14.2042 7.93401 14.1616 8.15645 14.1292 8.3338C13.9434 8.70625 13.7086 8.98905 13.4258 9.18295C13.143 9.37678 12.8718 9.47425 12.6134 9.47425C12.3872 9.47425 12.1952 9.39749 12.0373 9.24391C11.8795 9.09025 11.8008 8.86349 11.8008 8.56422C11.8008 8.40273 11.8253 8.18082 11.874 7.89742C11.9221 7.61454 11.9849 7.29702 12.0617 6.94529C12.1385 6.59363 12.2135 6.24436 12.286 5.89628C12.3586 5.54887 12.4195 5.22762 12.4677 4.93259C12.5164 4.63698 12.5408 4.40477 12.5408 4.23532C12.5408 3.92807 12.4658 3.70742 12.3165 3.57396C12.1665 3.44049 11.9264 3.37402 11.5948 3.37402C11.3766 3.37402 11.0871 3.42827 10.7274 3.53737C10.3678 3.64714 10.0222 3.79036 9.69066 3.96831C9.86071 4.20298 9.94544 4.57058 9.94544 5.07157C9.94544 5.41108 9.90095 5.80544 9.8119 6.25412C9.72293 6.70273 9.63395 7.16355 9.54498 7.63653C9.45593 8.1095 9.41211 8.56057 9.41211 8.98905C9.41211 9.3609 9.46636 9.6943 9.57545 9.98932C9.68455 10.2843 9.87897 10.519 10.1575 10.6927C10.4367 10.8665 10.8268 10.9536 11.3278 10.9536C11.8618 10.9536 12.3665 10.8445 12.8438 10.6263C13.2596 10.4362 13.5954 10.1785 13.8515 9.85325C13.9195 9.76688 13.975 9.67135 14.0208 9.57135L14.281 9.00247C14.2689 9.04032 14.0695 9.68029 14.0884 9.90951C14.114 10.1722 14.2122 10.4032 14.384 10.6019C14.5858 10.836 14.946 10.9536 15.4635 10.9536C15.9725 10.9536 16.4534 10.7555 16.9063 10.3593C16.7771 10.246 16.682 10.0948 16.6217 9.9046C16.5607 9.71442 16.5308 9.49802 16.5308 9.25546C16.5308 8.95679 16.5607 8.61906 16.6217 8.24304C16.682 7.86694 16.757 7.48108 16.846 7.08486C16.9349 6.68872 17.0215 6.3071 17.1069 5.93898C17.1916 5.57078 17.2641 5.23738 17.325 4.93811C17.3854 4.63944 17.4159 4.40477 17.4159 4.23532C17.4159 3.92807 17.3373 3.70742 17.1794 3.57396ZM30.7143 4.84116C30.7143 5.27821 30.6557 5.74083 30.5387 6.22968C30.4211 6.71912 30.3022 7.22019 30.181 7.734C30.0597 8.24721 29.9987 8.75439 29.9987 9.25538C29.9987 9.75705 30.084 10.1247 30.2535 10.3593C29.825 10.7555 29.3806 10.9536 28.9192 10.9536C28.4103 10.9536 28.0464 10.8244 27.8281 10.5653C27.6099 10.3069 27.5008 9.93507 27.5008 9.44988C27.5008 9.18288 27.5368 8.88607 27.6099 8.55811C27.6824 8.23082 27.7672 7.89734 27.8641 7.55783C27.9617 7.21832 28.0464 6.89893 28.1189 6.59967C28.1921 6.30099 28.228 6.04196 28.228 5.8237C28.228 5.65364 28.1981 5.52018 28.1371 5.42323C28.0769 5.32635 27.9696 5.27821 27.816 5.27821C27.5978 5.27821 27.349 5.37509 27.0699 5.56891C26.7913 5.76274 26.5201 6.03585 26.2574 6.38758C25.9947 6.73924 25.7783 7.15737 25.6089 7.64256C25.4387 8.12776 25.354 8.66541 25.354 9.25538C25.354 9.75705 25.4387 10.1247 25.6089 10.3593C25.1803 10.7555 24.7354 10.9536 24.2745 10.9536C23.7656 10.9536 23.4017 10.8244 23.1835 10.5653C22.9653 10.3069 22.8562 9.93507 22.8562 9.44988C22.8562 9.18288 22.8921 8.88607 22.9653 8.55811C23.0378 8.23082 23.1226 7.89734 23.2195 7.55783C23.317 7.21832 23.4017 6.89893 23.4743 6.59967C23.5474 6.30099 23.5834 6.04196 23.5834 5.8237C23.5834 5.65364 23.5535 5.52018 23.4925 5.42323C23.4322 5.32635 23.3249 5.27821 23.1713 5.27821C22.9531 5.27821 22.7044 5.37509 22.4253 5.56891C22.1467 5.76274 21.8755 6.03585 21.6127 6.38758C21.35 6.73924 21.1336 7.15737 20.9642 7.64256C20.7941 8.12776 20.7094 8.66541 20.7094 9.25538C20.7094 9.75705 20.7941 10.1247 20.9642 10.3593C20.5351 10.7555 20.0908 10.9536 19.6299 10.9536C19.121 10.9536 18.7571 10.8244 18.5382 10.5653C18.32 10.3069 18.2109 9.93507 18.2109 9.44988C18.2109 9.27983 18.2353 9.01893 18.284 8.6672C18.3323 8.31547 18.395 7.92357 18.4718 7.49144C18.5486 7.05863 18.6315 6.62403 18.7205 6.18765C18.8095 5.75059 18.8942 5.36294 18.9753 5.02343L18.3444 4.05304C18.676 3.86712 19.0338 3.70742 19.4178 3.57396C19.8018 3.44042 20.1919 3.37402 20.5881 3.37402C20.9276 3.37402 21.1781 3.45689 21.3397 3.62269C21.5018 3.7885 21.5822 4.0128 21.5822 4.2956C21.5822 4.5059 21.5542 4.72409 21.4975 4.95026C21.4408 5.17702 21.3762 5.37084 21.3037 5.5324L21.425 5.59336C21.9016 4.77655 22.4033 4.20298 22.9287 3.87137C23.4542 3.53975 24.0119 3.37402 24.6025 3.37402C25.0304 3.37402 25.3821 3.48126 25.657 3.6952C25.9319 3.90974 26.0696 4.25536 26.0696 4.73206C26.0696 4.97462 26.0288 5.24163 25.9484 5.5324L26.0696 5.59336C26.5463 4.77655 27.048 4.20298 27.5733 3.87137C28.0988 3.53975 28.6565 3.37402 29.2472 3.37402C29.7403 3.37402 30.1078 3.49348 30.3504 3.73179C30.593 3.9701 30.7143 4.34009 30.7143 4.84116Z" fill="black" fill-opacity="0.7"/>
</g>
</svg>
