<?xml version="1.0" encoding="UTF-8" standalone="no"?>
<!DOCTYPE svg PUBLIC "-//W3C//DTD SVG 1.1//EN" "http://www.w3.org/Graphics/SVG/1.1/DTD/svg11.dtd">
<svg width="100%" height="100%" viewBox="0 0 721 355" version="1.1" xmlns="http://www.w3.org/2000/svg" xmlns:xlink="http://www.w3.org/1999/xlink" xml:space="preserve" xmlns:serif="http://www.serif.com/" style="fill-rule:evenodd;clip-rule:evenodd;stroke-linejoin:round;stroke-miterlimit:2;">
    <g id="ArtBoard2" transform="matrix(1,0,0,1,84.3246,82.0186)">
        <rect x="-84.325" y="-82.019" width="720.468" height="354.945" style="fill:none;"/>
        <g transform="matrix(0.911334,0,0,0.884677,-2251.37,-1640.18)">
            <g id="ArtBoard1">
                <rect x="2471.16" y="1855.09" width="575.082" height="200.076" style="fill:none;"/>
                <g id="Layer-1" serif:id="Layer 1" transform="matrix(1.09729,0,0,1.13036,1824.8,1351.83)">
                    <g transform="matrix(1,0,0,1,677.697,617.18)">
                        <path d="M0,-125.794C-2.331,-129.156 -5.996,-130.841 -10.977,-130.841C-13.914,-130.841 -17.218,-130.268 -20.907,-129.131C-24.596,-127.994 -28.342,-126.228 -32.138,-123.847C-31.483,-122.539 -30.919,-121.074 -30.428,-119.447C-29.937,-117.819 -29.692,-115.815 -29.692,-113.426C-29.692,-109.41 -30.24,-104.83 -31.32,-99.677C-32.408,-94.523 -33.79,-89.149 -35.475,-83.563C-37.16,-77.976 -38.976,-72.471 -40.923,-67.048C-42.403,-62.942 -43.826,-59.016 -45.184,-55.278C-45.953,-53.159 -47.957,-51.752 -50.215,-51.752C-53.176,-51.752 -55.572,-54.141 -55.572,-57.069L-55.572,-57.274C-55.531,-58.141 -55.507,-59.016 -55.49,-59.883C-55.433,-62.599 -55.409,-64.602 -55.409,-65.911C-55.409,-75.13 -55.76,-83.669 -56.464,-91.538C-57.175,-99.407 -58.451,-106.294 -60.292,-112.208C-62.14,-118.122 -64.766,-122.702 -68.185,-125.958C-71.604,-129.213 -76.021,-130.841 -81.444,-130.841C-85.894,-130.841 -89.558,-130.268 -92.429,-129.131C-95.309,-127.994 -98.049,-126.228 -100.65,-123.847C-97.509,-121.344 -94.736,-117.663 -92.348,-112.78C-89.967,-107.897 -88.389,-101.762 -87.628,-94.384C-86.982,-88.094 -86.548,-81.093 -86.327,-73.396C-86.115,-65.69 -85.624,-58.255 -84.863,-51.098C-84.323,-45.454 -82.319,-41.143 -78.843,-38.158C-75.375,-35.172 -70.819,-33.684 -65.175,-33.684C-63.007,-33.684 -60.725,-33.905 -58.337,-34.338C-55.957,-34.772 -53.405,-35.475 -50.689,-36.448C-53.077,-30.265 -56.227,-25.766 -60.128,-22.944C-64.038,-20.122 -68.103,-18.715 -72.332,-18.715C-75.915,-18.715 -79.44,-19.664 -82.908,-21.562C-86.385,-23.459 -89.37,-26.199 -91.865,-29.782C-93.926,-26.747 -95.439,-23.868 -96.421,-21.153C-97.394,-18.445 -97.885,-15.893 -97.885,-13.505C-97.885,-7.648 -95.333,-3.092 -90.237,0.163C-85.133,3.419 -78.843,5.047 -71.359,5.047C-64.308,5.047 -57.282,3.255 -50.28,-0.327C-43.286,-3.902 -36.563,-9.979 -30.101,-18.551C-23.647,-27.124 -17.815,-38.894 -12.605,-53.863C-11.419,-57.339 -9.922,-61.568 -8.131,-66.557C-6.339,-71.547 -4.556,-76.839 -2.765,-82.426C-0.973,-88.012 0.515,-93.436 1.71,-98.703C2.904,-103.963 3.501,-108.6 3.501,-112.617C3.501,-118.04 2.339,-122.432 0,-125.794" style="fill:white;fill-rule:nonzero;"/>
                    </g>
                    <g transform="matrix(1,0,0,1,798.248,585.37)">
                        <path d="M0,-96.347C-2.119,-98.138 -5.611,-99.03 -10.494,-99.03C-16.032,-99.03 -21.455,-97.893 -26.772,-95.611C-32.089,-93.337 -37.078,-90.515 -41.74,-87.153L-31.982,-74.131C-32.628,-71.53 -33.365,-68.356 -34.174,-64.61C-34.992,-60.872 -35.859,-56.962 -36.775,-52.897C-37.7,-48.824 -38.518,-45.004 -39.221,-41.421C-39.925,-37.838 -40.497,-34.853 -40.931,-32.473C-43.425,-27.475 -46.575,-23.68 -50.37,-21.078C-54.165,-18.477 -57.805,-17.169 -61.273,-17.169C-64.308,-17.169 -66.884,-18.199 -69.003,-20.26C-71.121,-22.322 -72.177,-25.365 -72.177,-29.381C-72.177,-31.548 -71.849,-34.526 -71.195,-38.329C-70.549,-42.125 -69.706,-46.386 -68.676,-51.106C-67.645,-55.825 -66.639,-60.512 -65.666,-65.183C-64.692,-69.845 -63.874,-74.156 -63.228,-78.115C-62.574,-82.082 -62.247,-85.198 -62.247,-87.472C-62.247,-91.595 -63.253,-94.556 -65.257,-96.347C-67.269,-98.138 -70.492,-99.03 -74.941,-99.03C-77.87,-99.03 -81.755,-98.302 -86.581,-96.838C-91.407,-95.365 -96.045,-93.443 -100.494,-91.055C-98.212,-87.906 -97.075,-82.973 -97.075,-76.25C-97.075,-71.694 -97.672,-66.402 -98.867,-60.381C-100.061,-54.361 -101.255,-48.177 -102.449,-41.83C-103.644,-35.483 -104.232,-29.43 -104.232,-23.68C-104.232,-18.69 -103.504,-14.216 -102.04,-10.257C-100.576,-6.298 -97.967,-3.149 -94.229,-0.818C-90.483,1.514 -85.248,2.683 -78.524,2.683C-71.359,2.683 -64.586,1.219 -58.181,-1.709C-52.601,-4.26 -48.095,-7.719 -44.658,-12.083C-43.745,-13.242 -43,-14.524 -42.386,-15.866L-38.894,-23.5C-39.057,-22.992 -41.732,-14.404 -41.479,-11.328C-41.135,-7.803 -39.818,-4.703 -37.512,-2.036C-34.804,1.105 -29.97,2.683 -23.026,2.683C-16.196,2.683 -9.742,0.025 -3.664,-5.292C-5.398,-6.813 -6.674,-8.842 -7.484,-11.394C-8.302,-13.946 -8.703,-16.85 -8.703,-20.105C-8.703,-24.113 -8.302,-28.645 -7.484,-33.691C-6.674,-38.738 -5.668,-43.916 -4.474,-49.233C-3.28,-54.549 -2.119,-59.67 -0.973,-64.61C0.164,-69.551 1.137,-74.025 1.955,-78.041C2.765,-82.049 3.174,-85.198 3.174,-87.472C3.174,-91.595 2.119,-94.556 0,-96.347" style="fill:white;fill-rule:nonzero;"/>
                    </g>
                    <g transform="matrix(1,0,0,1,977.5,549.732)">
                        <path d="M0,-25.071C1.57,-31.631 2.356,-37.839 2.356,-43.704C2.356,-50.428 0.728,-55.393 -2.527,-58.591C-5.783,-61.789 -10.715,-63.392 -17.332,-63.392C-25.259,-63.392 -32.743,-61.168 -39.794,-56.718C-46.844,-52.268 -53.576,-44.571 -59.973,-33.61L-61.6,-34.428C-60.521,-38.33 -59.973,-41.913 -59.973,-45.168C-59.973,-51.565 -61.821,-56.203 -65.51,-59.082C-69.199,-61.953 -73.919,-63.392 -79.661,-63.392C-87.587,-63.392 -95.071,-61.168 -102.122,-56.718C-109.173,-52.268 -115.905,-44.571 -122.301,-33.61L-123.929,-34.428C-122.956,-36.596 -122.089,-39.197 -121.328,-42.24C-120.567,-45.275 -120.191,-48.203 -120.191,-51.025C-120.191,-54.82 -121.271,-57.83 -123.446,-60.055C-125.614,-62.28 -128.976,-63.392 -133.532,-63.392C-138.848,-63.392 -144.083,-62.501 -149.237,-60.709C-154.39,-58.918 -159.191,-56.775 -163.641,-54.28L-155.175,-41.258C-156.263,-36.702 -157.4,-31.5 -158.594,-25.635C-159.788,-19.779 -160.901,-13.947 -161.931,-8.139C-162.962,-2.34 -163.804,2.919 -164.451,7.639C-165.105,12.359 -165.432,15.86 -165.432,18.142C-165.432,24.653 -163.968,29.642 -161.04,33.11C-158.103,36.587 -153.22,38.321 -146.39,38.321C-140.206,38.321 -134.243,35.662 -128.485,30.346C-130.767,27.197 -131.904,22.264 -131.904,15.532C-131.904,7.615 -130.767,0.4 -128.485,-6.111C-126.211,-12.622 -123.307,-18.233 -119.782,-22.952C-116.256,-27.672 -112.617,-31.337 -108.878,-33.938C-105.132,-36.539 -101.795,-37.839 -98.867,-37.839C-96.805,-37.839 -95.366,-37.193 -94.556,-35.893C-93.738,-34.592 -93.337,-32.801 -93.337,-30.519C-93.337,-27.59 -93.82,-24.114 -94.801,-20.106C-95.775,-16.09 -96.912,-11.804 -98.22,-7.248C-99.521,-2.692 -100.658,1.783 -101.631,6.175C-102.613,10.576 -103.095,14.559 -103.095,18.142C-103.095,24.653 -101.631,29.642 -98.703,33.11C-95.775,36.587 -90.892,38.321 -84.062,38.321C-77.878,38.321 -71.907,35.662 -66.156,30.346C-68.439,27.197 -69.576,22.264 -69.576,15.532C-69.576,7.615 -68.439,0.4 -66.156,-6.111C-63.883,-12.622 -60.979,-18.233 -57.453,-22.952C-53.928,-27.672 -50.288,-31.337 -46.55,-33.938C-42.804,-36.539 -39.466,-37.839 -36.538,-37.839C-34.477,-37.839 -33.037,-37.193 -32.228,-35.893C-31.41,-34.592 -31.009,-32.801 -31.009,-30.519C-31.009,-27.59 -31.491,-24.114 -32.473,-20.106C-33.446,-16.09 -34.583,-11.804 -35.892,-7.248C-37.193,-2.692 -38.33,1.783 -39.303,6.175C-40.284,10.576 -40.767,14.559 -40.767,18.142C-40.767,24.653 -39.303,29.642 -36.375,33.11C-33.446,36.587 -28.563,38.321 -21.733,38.321C-15.541,38.321 -9.578,35.662 -3.828,30.346C-6.102,27.197 -7.247,22.264 -7.247,15.532C-7.247,8.809 -6.429,2.003 -4.801,-4.884C-3.174,-11.779 -1.579,-18.503 0,-25.071" style="fill:white;fill-rule:nonzero;"/>
                    </g>
                    <g transform="matrix(1,0,0,1,1082.65,561.363)">
                        <path d="M0,-49.151C2.119,-51.858 3.174,-55.384 3.174,-59.727C3.174,-64.177 1.759,-67.833 -1.055,-70.712C-3.877,-73.583 -8.163,-75.023 -13.913,-75.023C-17.93,-75.023 -21.619,-73.935 -24.98,-71.768C-28.342,-69.6 -30.894,-66.884 -32.628,-63.629C-36.211,-63.85 -40.824,-64.529 -46.46,-65.666C-52.104,-66.803 -57.936,-68.299 -63.956,-70.14C-69.976,-71.988 -75.432,-73.886 -80.315,-75.841C-80.855,-72.471 -81.289,-69.682 -81.616,-67.457C-81.943,-65.232 -82.107,-63.089 -82.107,-61.028C-82.107,-56.365 -81.101,-52.431 -79.088,-49.233C-77.084,-46.026 -73.502,-43.532 -68.349,-41.74C-63.195,-39.957 -55.957,-38.894 -46.624,-38.567C-46.624,-38.567 -41.994,-38.567 -39.385,-38.902C-41.511,-38.509 -47.63,-36.898 -53.936,-30.812L-73.314,-10.249C-79.931,-9.496 -84.814,-7.051 -87.963,-2.928C-91.112,1.194 -92.683,5.48 -92.683,9.93C-92.683,13.938 -91.382,17.554 -88.773,20.752C-86.172,23.95 -82.377,25.553 -77.387,25.553C-74.238,25.553 -71.252,25.005 -68.43,23.925C-65.617,22.838 -62.574,21.046 -59.318,18.551C-53.568,20.727 -48.063,22.617 -42.804,24.244C-37.536,25.872 -31.819,26.69 -25.635,26.69C-20.972,26.69 -16.711,25.848 -12.858,24.163C-9.006,22.486 -5.914,20.155 -3.583,17.169C-1.251,14.184 -0.082,10.74 -0.082,6.838C-0.082,3.902 -0.409,1.113 -1.055,-1.546C-1.709,-4.204 -2.519,-6.781 -3.501,-9.276L-25.635,-0.654C-28.236,-0.761 -30.952,-1.137 -33.765,-1.791C-36.595,-2.437 -39.466,-3.198 -42.395,-4.065L-8.703,-42.64C-5.022,-44.268 -2.118,-46.435 0,-49.151" style="fill:white;fill-rule:nonzero;"/>
                    </g>
                    <g transform="matrix(1,0,0,1,1147.07,584.879)">
                        <path d="M0,-133.932C-3.255,-136.051 -7.378,-137.106 -12.368,-137.106C-15.41,-137.106 -18.633,-136.509 -22.052,-135.323C-25.471,-134.12 -28.375,-132.362 -30.755,-130.03C-33.144,-127.699 -34.338,-124.738 -34.338,-121.164C-34.338,-117.475 -32.71,-114.538 -29.455,-112.371C-26.199,-110.203 -22.077,-109.115 -17.087,-109.115C-13.185,-109.115 -9.578,-109.77 -6.266,-111.07C-2.961,-112.371 -0.27,-114.244 1.791,-116.681C3.853,-119.127 4.883,-121.916 4.883,-125.065C4.883,-128.861 3.255,-131.822 0,-133.932M-3.174,-95.611C-4.965,-97.566 -8.139,-98.539 -12.695,-98.539C-17.905,-98.539 -23.107,-97.369 -28.318,-95.038C-33.528,-92.707 -39.008,-89.803 -44.75,-86.335L-35.638,-72.667C-36.726,-67.89 -37.863,-62.794 -39.057,-57.363C-40.252,-51.94 -41.397,-46.599 -42.477,-41.339C-43.564,-36.071 -44.431,-31.303 -45.078,-27.017C-45.732,-22.731 -46.059,-19.393 -46.059,-17.005C-46.059,-10.494 -44.595,-5.504 -41.659,-2.036C-38.73,1.44 -33.798,3.174 -26.854,3.174C-20.015,3.174 -13.562,0.516 -7.484,-4.801C-9.227,-6.322 -10.494,-8.351 -11.312,-10.903C-12.122,-13.455 -12.531,-16.359 -12.531,-19.614C-12.531,-23.737 -12.122,-28.424 -11.312,-33.691C-10.494,-38.951 -9.496,-44.316 -8.302,-49.797C-7.108,-55.277 -5.914,-60.512 -4.72,-65.502C-3.525,-70.491 -2.519,-74.835 -1.709,-78.523C-0.9,-82.213 -0.491,-84.871 -0.491,-86.499C-0.491,-90.621 -1.382,-93.656 -3.174,-95.611" style="fill:white;fill-rule:nonzero;"/>
                    </g>
                </g>
            </g>
        </g>
    </g>
</svg>
