<svg width="40" height="13" viewBox="0 0 40 13" fill="none" xmlns="http://www.w3.org/2000/svg">
<g id="Layer-1">
<g id="Group">
<path id="Vector" d="M7.1507 3.51806C6.99036 3.2868 6.73826 3.1709 6.39565 3.1709C6.19363 3.1709 5.96636 3.21031 5.71262 3.28852C5.45887 3.36673 5.20121 3.4882 4.9401 3.65198C4.98515 3.74195 5.02395 3.84272 5.05772 3.95463C5.0915 4.06662 5.10835 4.20446 5.10835 4.36879C5.10835 4.64503 5.07065 4.96006 4.99637 5.31451C4.92153 5.66903 4.82647 6.03868 4.71057 6.42291C4.59467 6.80721 4.46975 7.18587 4.33583 7.55889C4.23403 7.84132 4.13615 8.11137 4.04274 8.36849C3.98984 8.51425 3.852 8.61103 3.69668 8.61103C3.49301 8.61103 3.32821 8.4467 3.32821 8.2453V8.23119C3.33103 8.17156 3.33268 8.11137 3.33385 8.05174C3.33777 7.86492 3.33942 7.72714 3.33942 7.6371C3.33942 7.00297 3.31527 6.41562 3.26685 5.87435C3.21794 5.33308 3.13017 4.85936 3.00354 4.45257C2.87643 4.04577 2.6958 3.73074 2.46063 3.50678C2.22545 3.28288 1.92163 3.1709 1.54861 3.1709C1.24252 3.1709 0.990496 3.21031 0.793016 3.28852C0.594917 3.36673 0.406447 3.4882 0.227539 3.65198C0.443591 3.82415 0.634331 4.07735 0.798588 4.41322C0.962364 4.7491 1.07091 5.17109 1.12325 5.67859C1.16769 6.11125 1.19754 6.59281 1.21274 7.12225C1.22732 7.6523 1.26109 8.16372 1.31344 8.65601C1.35058 9.04423 1.48843 9.34076 1.72752 9.54609C1.96607 9.75148 2.27945 9.85383 2.66767 9.85383C2.81679 9.85383 2.97376 9.83863 3.13802 9.80885C3.30172 9.77899 3.47726 9.73064 3.66408 9.66371C3.49982 10.089 3.28315 10.3985 3.01482 10.5926C2.74588 10.7867 2.46627 10.8835 2.17538 10.8835C1.92892 10.8835 1.68646 10.8182 1.44791 10.6876C1.20875 10.5572 1.00343 10.3687 0.831811 10.1222C0.690046 10.331 0.585975 10.529 0.518429 10.7158C0.451502 10.902 0.417728 11.0776 0.417728 11.2418C0.417728 11.6447 0.593266 11.9581 0.943792 12.182C1.29487 12.406 1.72752 12.5179 2.24231 12.5179C2.7273 12.5179 3.21058 12.3947 3.69221 12.1483C4.17329 11.9024 4.63573 11.4844 5.08021 10.8948C5.52415 10.3051 5.9253 9.49546 6.28367 8.46582C6.36525 8.22672 6.46822 7.93583 6.59141 7.59267C6.71467 7.24943 6.83731 6.88542 6.96051 6.50112C7.08377 6.11689 7.18612 5.7438 7.26832 5.38151C7.35045 5.0197 7.39151 4.70074 7.39151 4.42443C7.39151 4.05141 7.31158 3.74931 7.1507 3.51806Z" fill="black" fill-opacity="0.15"/>
</g>
<g id="Group_2">
<path id="Vector_2" d="M15.4391 3.35545C15.2933 3.23225 15.0531 3.1709 14.7173 3.1709C14.3363 3.1709 13.9633 3.24911 13.5976 3.40607C13.2319 3.56249 12.8887 3.7566 12.568 3.98786L13.2392 4.88357C13.1948 5.06248 13.1441 5.28081 13.0884 5.53847C13.0322 5.79559 12.9725 6.06454 12.9095 6.34415C12.8459 6.62431 12.7896 6.88707 12.7413 7.13353C12.6929 7.37998 12.6535 7.58531 12.6237 7.74901C12.4521 8.0928 12.2354 8.35384 11.9744 8.53282C11.7134 8.71173 11.463 8.8017 11.2244 8.8017C11.0157 8.8017 10.8385 8.73085 10.6927 8.58908C10.5471 8.44725 10.4744 8.23794 10.4744 7.9617C10.4744 7.81264 10.497 7.6078 10.542 7.34621C10.5864 7.0851 10.6444 6.79201 10.7152 6.46734C10.7861 6.14275 10.8553 5.82035 10.9223 5.49906C10.9893 5.17838 11.0455 4.88185 11.09 4.60953C11.135 4.33666 11.1574 4.12233 11.1574 3.96591C11.1574 3.68231 11.0883 3.47864 10.9504 3.35545C10.812 3.23225 10.5903 3.1709 10.2843 3.1709C10.0828 3.1709 9.8156 3.22097 9.48365 3.32167C9.15169 3.423 8.83267 3.5552 8.52665 3.71946C8.68361 3.93606 8.76182 4.27538 8.76182 4.73782C8.76182 5.0512 8.72076 5.41521 8.63856 5.82936C8.55643 6.24345 8.4743 6.66882 8.39217 7.10539C8.30998 7.54197 8.26953 7.95833 8.26953 8.35384C8.26953 8.69707 8.31961 9.00482 8.42031 9.27714C8.52101 9.54946 8.70047 9.76606 8.95758 9.9264C9.21525 10.0868 9.57534 10.1672 10.0378 10.1672C10.5307 10.1672 10.9966 10.0665 11.4371 9.86511C11.8209 9.68964 12.1309 9.45171 12.3673 9.15154C12.4301 9.07182 12.4813 8.98363 12.5236 8.89132L12.7638 8.36622C12.7526 8.40116 12.5686 8.99189 12.586 9.20347C12.6096 9.44594 12.7002 9.65917 12.8588 9.84262C13.0451 10.0587 13.3776 10.1672 13.8552 10.1672C14.325 10.1672 14.769 9.98438 15.187 9.61865C15.0678 9.51403 14.98 9.37447 14.9243 9.19893C14.868 9.02339 14.8404 8.82364 14.8404 8.59974C14.8404 8.32405 14.868 8.01232 14.9243 7.66523C14.98 7.31808 15.0492 6.96191 15.1313 6.59618C15.2135 6.23052 15.2933 5.87827 15.3721 5.53847C15.4504 5.19861 15.5173 4.89086 15.5735 4.61462C15.6293 4.33893 15.6574 4.12233 15.6574 3.96591C15.6574 3.68231 15.5848 3.47864 15.4391 3.35545Z" fill="black" fill-opacity="0.15"/>
</g>
<g id="Group_3">
<path id="Vector_3" d="M27.7717 5.8068C27.8797 5.35557 27.9338 4.92856 27.9338 4.52513C27.9338 4.06263 27.8218 3.72111 27.5979 3.50113C27.374 3.28116 27.0347 3.1709 26.5796 3.1709C26.0343 3.1709 25.5195 3.32388 25.0345 3.62997C24.5496 3.93606 24.0865 4.4655 23.6465 5.21945L23.5346 5.16318C23.6088 4.89478 23.6465 4.64833 23.6465 4.42443C23.6465 3.98442 23.5194 3.66539 23.2657 3.46736C23.0119 3.26988 22.6873 3.1709 22.2923 3.1709C21.7471 3.1709 21.2323 3.32388 20.7473 3.62997C20.2623 3.93606 19.7993 4.4655 19.3593 5.21945L19.2473 5.16318C19.3143 5.01406 19.3739 4.83515 19.4262 4.62584C19.4786 4.41707 19.5045 4.21567 19.5045 4.02156C19.5045 3.76052 19.4302 3.55348 19.2806 3.40043C19.1314 3.24739 18.9002 3.1709 18.5868 3.1709C18.2211 3.1709 17.8611 3.23219 17.5065 3.35545C17.1521 3.47864 16.8219 3.62605 16.5158 3.79767L17.0981 4.69338C17.0233 5.00677 16.9451 5.36459 16.8629 5.76801C16.7808 6.17081 16.7042 6.57197 16.6334 6.97147C16.5625 7.37035 16.5046 7.73209 16.4601 8.05676C16.4151 8.38142 16.3926 8.62224 16.3926 8.7792C16.3926 9.22706 16.4933 9.57023 16.6947 9.80878C16.8967 10.0479 17.2326 10.1672 17.7024 10.1672C18.1277 10.1672 18.5379 9.98431 18.934 9.61865C18.777 9.40205 18.6988 9.06274 18.6988 8.59968C18.6988 8.05511 18.777 7.55882 18.934 7.11096C19.0904 6.66311 19.2901 6.27715 19.5326 5.95256C19.7751 5.62789 20.0254 5.3758 20.2826 5.19689C20.5403 5.01798 20.7698 4.92856 20.9712 4.92856C21.1131 4.92856 21.212 4.97299 21.2677 5.06241C21.324 5.1519 21.3516 5.2751 21.3516 5.43206C21.3516 5.63353 21.3184 5.87263 21.2509 6.14832C21.1839 6.42456 21.1057 6.71937 21.0157 7.03276C20.9262 7.34614 20.848 7.65395 20.7811 7.95606C20.7136 8.25878 20.6804 8.53275 20.6804 8.7792C20.6804 9.22706 20.7811 9.57023 20.9825 9.80878C21.1839 10.0479 21.5198 10.1672 21.9896 10.1672C22.4149 10.1672 22.8256 9.98431 23.2212 9.61865C23.0642 9.40205 22.986 9.06274 22.986 8.59968C22.986 8.05511 23.0642 7.55882 23.2212 7.11096C23.3776 6.66311 23.5773 6.27715 23.8199 5.95256C24.0623 5.62789 24.3127 5.3758 24.5698 5.19689C24.8275 5.01798 25.0571 4.92856 25.2585 4.92856C25.4003 4.92856 25.4993 4.97299 25.5549 5.06241C25.6112 5.1519 25.6388 5.2751 25.6388 5.43206C25.6388 5.63353 25.6056 5.87263 25.5381 6.14832C25.4712 6.42456 25.393 6.71937 25.3029 7.03276C25.2134 7.34614 25.1352 7.65395 25.0683 7.95606C25.0008 8.25878 24.9676 8.53275 24.9676 8.7792C24.9676 9.22706 25.0683 9.57023 25.2697 9.80878C25.4712 10.0479 25.807 10.1672 26.2768 10.1672C26.7028 10.1672 27.1129 9.98431 27.5084 9.61865C27.352 9.40205 27.2733 9.06274 27.2733 8.59968C27.2733 8.13723 27.3295 7.66909 27.4415 7.19536C27.5534 6.72109 27.6631 6.25858 27.7717 5.8068Z" fill="black" fill-opacity="0.15"/>
</g>
<g id="Group_4">
<path id="Vector_4" d="M35.006 4.95208C35.1518 4.76588 35.2243 4.52334 35.2243 4.22461C35.2243 3.91852 35.127 3.66704 34.9334 3.46901C34.7393 3.27153 34.4445 3.17248 34.049 3.17248C33.7727 3.17248 33.519 3.24732 33.2878 3.39637C33.0565 3.5455 32.881 3.73232 32.7617 3.95621C32.5153 3.94101 32.198 3.89431 31.8103 3.8161C31.4221 3.73789 31.0209 3.63499 30.6068 3.50835C30.1927 3.38124 29.8175 3.25069 29.4816 3.11621C29.4444 3.34802 29.4146 3.53986 29.3921 3.6929C29.3696 3.84595 29.3583 3.99336 29.3583 4.13512C29.3583 4.45587 29.4275 4.72646 29.566 4.94644C29.7038 5.16703 29.9502 5.33858 30.3047 5.46184C30.6592 5.58449 31.157 5.65761 31.799 5.6801C31.799 5.6801 32.1175 5.6801 32.2969 5.65706C32.1507 5.68409 31.7298 5.7949 31.2961 6.21353L29.9631 7.62795C29.508 7.67974 29.1721 7.84792 28.9555 8.13152C28.7389 8.41505 28.6309 8.70987 28.6309 9.01596C28.6309 9.29165 28.7203 9.54037 28.8998 9.76035C29.0787 9.98032 29.3398 10.0906 29.683 10.0906C29.8996 10.0906 30.105 10.0529 30.2991 9.9786C30.4926 9.90383 30.7019 9.78057 30.9259 9.60895C31.3214 9.75863 31.7 9.88863 32.0618 10.0005C32.4241 10.1125 32.8174 10.1688 33.2427 10.1688C33.5635 10.1688 33.8566 10.1109 34.1216 9.99497C34.3865 9.87962 34.5992 9.71928 34.7596 9.51389C34.92 9.30857 35.0004 9.07167 35.0004 8.80328C35.0004 8.60132 34.9779 8.40948 34.9334 8.22658C34.8885 8.04375 34.8327 7.86649 34.7652 7.69488L33.2427 8.28794C33.0638 8.28058 32.877 8.25472 32.6835 8.20973C32.4888 8.1653 32.2914 8.11295 32.0899 8.05331L34.4074 5.39994C34.6606 5.28796 34.8603 5.1389 35.006 4.95208Z" fill="black" fill-opacity="0.15"/>
</g>
<g id="Group_5">
<path id="Vector_5" d="M39.4357 0.736878C39.2118 0.591122 38.9282 0.518555 38.585 0.518555C38.3758 0.518555 38.1541 0.55962 37.9189 0.641198C37.6837 0.723947 37.484 0.84487 37.3203 1.00528C37.1559 1.16561 37.0738 1.36929 37.0738 1.61512C37.0738 1.86887 37.1858 2.07089 37.4097 2.21995C37.6336 2.36907 37.9172 2.44391 38.2604 2.44391C38.5288 2.44391 38.7769 2.39886 39.0047 2.30944C39.2321 2.21995 39.4172 2.09111 39.5589 1.92349C39.7007 1.75524 39.7716 1.5634 39.7716 1.34679C39.7716 1.08569 39.6596 0.882014 39.4357 0.736878ZM39.2174 3.37278C39.0942 3.23831 38.8759 3.17138 38.5625 3.17138C38.2041 3.17138 37.8463 3.25186 37.4879 3.4122C37.1295 3.57253 36.7526 3.77229 36.3576 4.01083L36.9844 4.95098C36.9095 5.27957 36.8313 5.6301 36.7492 6.00367C36.667 6.37669 36.5883 6.74407 36.514 7.10587C36.4392 7.46823 36.3796 7.7962 36.3351 8.09101C36.2901 8.38582 36.2676 8.61543 36.2676 8.77969C36.2676 9.22754 36.3683 9.57078 36.5702 9.80933C36.7717 10.0484 37.1109 10.1677 37.5886 10.1677C38.059 10.1677 38.5029 9.98487 38.9209 9.61914C38.801 9.51451 38.7139 9.37495 38.6576 9.19941C38.6019 9.02387 38.5738 8.82412 38.5738 8.60023C38.5738 8.31663 38.6019 7.99423 38.6576 7.63194C38.7139 7.27013 38.7825 6.9011 38.8647 6.52409C38.9468 6.14715 39.0289 5.78706 39.1111 5.44383C39.1933 5.10066 39.2625 4.80186 39.3182 4.54818C39.3738 4.29436 39.4019 4.11153 39.4019 3.99955C39.4019 3.71602 39.3407 3.50726 39.2174 3.37278Z" fill="black" fill-opacity="0.15"/>
</g>
</g>
</svg>
