<svg width="81" height="24" viewBox="0 0 81 24" fill="none" xmlns="http://www.w3.org/2000/svg">
<path d="M14.8016 5.99989C14.481 5.53737 13.9768 5.30556 13.2915 5.30556C12.8875 5.30556 12.4329 5.38439 11.9254 5.54081C11.4179 5.69723 10.9026 5.94019 10.3804 6.26775C10.4705 6.44769 10.5481 6.64923 10.6156 6.87306C10.6832 7.09703 10.7169 7.37273 10.7169 7.70139C10.7169 8.25388 10.6415 8.88396 10.4929 9.59287C10.3432 10.3019 10.1531 11.0412 9.9213 11.8097C9.68949 12.5783 9.43966 13.3357 9.17181 14.0817C8.9682 14.6466 8.77244 15.1867 8.58562 15.7009C8.47982 15.9925 8.20413 16.186 7.89349 16.186C7.48615 16.186 7.15652 15.8574 7.15652 15.4545V15.4263C7.16217 15.3071 7.16547 15.1867 7.16781 15.0674C7.17565 14.6938 7.17895 14.4182 7.17895 14.2381C7.17895 12.9699 7.13066 11.7951 7.03381 10.7126C6.936 9.63001 6.76046 8.68255 6.50719 7.86895C6.25295 7.05535 5.89169 6.42527 5.42134 5.97733C4.95098 5.52953 4.34333 5.30556 3.59728 5.30556C2.98508 5.30556 2.48102 5.38439 2.08605 5.54081C1.68985 5.69723 1.3129 5.94019 0.955078 6.26775C1.38719 6.61209 1.76868 7.11849 2.0972 7.79026C2.42475 8.46202 2.64184 9.30603 2.74653 10.321C2.83541 11.1864 2.89511 12.1495 2.92551 13.2084C2.95468 14.2685 3.02223 15.2914 3.12692 16.276C3.20121 17.0524 3.4769 17.6455 3.9551 18.0562C4.4322 18.467 5.05897 18.6717 5.83543 18.6717C6.13368 18.6717 6.44762 18.6413 6.77614 18.5817C7.10356 18.522 7.45464 18.4253 7.82829 18.2914C7.49977 19.142 7.06642 19.761 6.52975 20.1492C5.99184 20.5374 5.43262 20.731 4.85083 20.731C4.35791 20.731 3.87297 20.6004 3.39587 20.3393C2.91754 20.0783 2.50688 19.7014 2.16364 19.2085C1.88011 19.626 1.67196 20.0221 1.53687 20.3956C1.40301 20.7681 1.33546 21.1192 1.33546 21.4477C1.33546 22.2535 1.68655 22.8803 2.38761 23.3281C3.08977 23.776 3.9551 24 4.98468 24C5.9547 24 6.92128 23.7535 7.88455 23.2607C8.84673 22.7688 9.77162 21.9328 10.6606 20.7536C11.5485 19.5741 12.3508 17.9549 13.0676 15.8956C13.2307 15.4174 13.4367 14.8356 13.6831 14.1493C13.9296 13.4628 14.1749 12.7347 14.4213 11.9661C14.6678 11.1976 14.8725 10.4515 15.0369 9.72686C15.2012 9.00323 15.2833 8.36531 15.2833 7.81268C15.2833 7.06663 15.1234 6.46241 14.8016 5.99989Z" fill="#101828"/>
<path d="M14.8016 5.99989C14.481 5.53737 13.9768 5.30556 13.2915 5.30556C12.8875 5.30556 12.4329 5.38439 11.9254 5.54081C11.4179 5.69723 10.9026 5.94019 10.3804 6.26775C10.4705 6.44769 10.5481 6.64923 10.6156 6.87306C10.6832 7.09703 10.7169 7.37273 10.7169 7.70139C10.7169 8.25388 10.6415 8.88396 10.4929 9.59287C10.3432 10.3019 10.1531 11.0412 9.9213 11.8097C9.68949 12.5783 9.43966 13.3357 9.17181 14.0817C8.9682 14.6466 8.77244 15.1867 8.58562 15.7009C8.47982 15.9925 8.20413 16.186 7.89349 16.186C7.48615 16.186 7.15652 15.8574 7.15652 15.4545V15.4263C7.16217 15.3071 7.16547 15.1867 7.16781 15.0674C7.17565 14.6938 7.17895 14.4182 7.17895 14.2381C7.17895 12.9699 7.13066 11.7951 7.03381 10.7126C6.936 9.63001 6.76046 8.68255 6.50719 7.86895C6.25295 7.05535 5.89169 6.42527 5.42134 5.97733C4.95098 5.52953 4.34333 5.30556 3.59728 5.30556C2.98508 5.30556 2.48102 5.38439 2.08605 5.54081C1.68985 5.69723 1.3129 5.94019 0.955078 6.26775C1.38719 6.61209 1.76868 7.11849 2.0972 7.79026C2.42475 8.46202 2.64184 9.30603 2.74653 10.321C2.83541 11.1864 2.89511 12.1495 2.92551 13.2084C2.95468 14.2685 3.02223 15.2914 3.12692 16.276C3.20121 17.0524 3.4769 17.6455 3.9551 18.0562C4.4322 18.467 5.05897 18.6717 5.83543 18.6717C6.13368 18.6717 6.44762 18.6413 6.77614 18.5817C7.10356 18.522 7.45464 18.4253 7.82829 18.2914C7.49977 19.142 7.06642 19.761 6.52975 20.1492C5.99184 20.5374 5.43262 20.731 4.85083 20.731C4.35791 20.731 3.87297 20.6004 3.39587 20.3393C2.91754 20.0783 2.50688 19.7014 2.16364 19.2085C1.88011 19.626 1.67196 20.0221 1.53687 20.3956C1.40301 20.7681 1.33546 21.1192 1.33546 21.4477C1.33546 22.2535 1.68655 22.8803 2.38761 23.3281C3.08977 23.776 3.9551 24 4.98468 24C5.9547 24 6.92128 23.7535 7.88455 23.2607C8.84673 22.7688 9.77162 21.9328 10.6606 20.7536C11.5485 19.5741 12.3508 17.9549 13.0676 15.8956C13.2307 15.4174 13.4367 14.8356 13.6831 14.1493C13.9296 13.4628 14.1749 12.7347 14.4213 11.9661C14.6678 11.1976 14.8725 10.4515 15.0369 9.72686C15.2012 9.00323 15.2833 8.36531 15.2833 7.81268C15.2833 7.06663 15.1234 6.46241 14.8016 5.99989Z" fill="black" fill-opacity="0.2"/>
<path d="M14.8016 5.99989C14.481 5.53737 13.9768 5.30556 13.2915 5.30556C12.8875 5.30556 12.4329 5.38439 11.9254 5.54081C11.4179 5.69723 10.9026 5.94019 10.3804 6.26775C10.4705 6.44769 10.5481 6.64923 10.6156 6.87306C10.6832 7.09703 10.7169 7.37273 10.7169 7.70139C10.7169 8.25388 10.6415 8.88396 10.4929 9.59287C10.3432 10.3019 10.1531 11.0412 9.9213 11.8097C9.68949 12.5783 9.43966 13.3357 9.17181 14.0817C8.9682 14.6466 8.77244 15.1867 8.58562 15.7009C8.47982 15.9925 8.20413 16.186 7.89349 16.186C7.48615 16.186 7.15652 15.8574 7.15652 15.4545V15.4263C7.16217 15.3071 7.16547 15.1867 7.16781 15.0674C7.17565 14.6938 7.17895 14.4182 7.17895 14.2381C7.17895 12.9699 7.13066 11.7951 7.03381 10.7126C6.936 9.63001 6.76046 8.68255 6.50719 7.86895C6.25295 7.05535 5.89169 6.42527 5.42134 5.97733C4.95098 5.52953 4.34333 5.30556 3.59728 5.30556C2.98508 5.30556 2.48102 5.38439 2.08605 5.54081C1.68985 5.69723 1.3129 5.94019 0.955078 6.26775C1.38719 6.61209 1.76868 7.11849 2.0972 7.79026C2.42475 8.46202 2.64184 9.30603 2.74653 10.321C2.83541 11.1864 2.89511 12.1495 2.92551 13.2084C2.95468 14.2685 3.02223 15.2914 3.12692 16.276C3.20121 17.0524 3.4769 17.6455 3.9551 18.0562C4.4322 18.467 5.05897 18.6717 5.83543 18.6717C6.13368 18.6717 6.44762 18.6413 6.77614 18.5817C7.10356 18.522 7.45464 18.4253 7.82829 18.2914C7.49977 19.142 7.06642 19.761 6.52975 20.1492C5.99184 20.5374 5.43262 20.731 4.85083 20.731C4.35791 20.731 3.87297 20.6004 3.39587 20.3393C2.91754 20.0783 2.50688 19.7014 2.16364 19.2085C1.88011 19.626 1.67196 20.0221 1.53687 20.3956C1.40301 20.7681 1.33546 21.1192 1.33546 21.4477C1.33546 22.2535 1.68655 22.8803 2.38761 23.3281C3.08977 23.776 3.9551 24 4.98468 24C5.9547 24 6.92128 23.7535 7.88455 23.2607C8.84673 22.7688 9.77162 21.9328 10.6606 20.7536C11.5485 19.5741 12.3508 17.9549 13.0676 15.8956C13.2307 15.4174 13.4367 14.8356 13.6831 14.1493C13.9296 13.4628 14.1749 12.7347 14.4213 11.9661C14.6678 11.1976 14.8725 10.4515 15.0369 9.72686C15.2012 9.00323 15.2833 8.36531 15.2833 7.81268C15.2833 7.06663 15.1234 6.46241 14.8016 5.99989Z" fill="black" fill-opacity="0.2"/>
<path d="M14.8016 5.99989C14.481 5.53737 13.9768 5.30556 13.2915 5.30556C12.8875 5.30556 12.4329 5.38439 11.9254 5.54081C11.4179 5.69723 10.9026 5.94019 10.3804 6.26775C10.4705 6.44769 10.5481 6.64923 10.6156 6.87306C10.6832 7.09703 10.7169 7.37273 10.7169 7.70139C10.7169 8.25388 10.6415 8.88396 10.4929 9.59287C10.3432 10.3019 10.1531 11.0412 9.9213 11.8097C9.68949 12.5783 9.43966 13.3357 9.17181 14.0817C8.9682 14.6466 8.77244 15.1867 8.58562 15.7009C8.47982 15.9925 8.20413 16.186 7.89349 16.186C7.48615 16.186 7.15652 15.8574 7.15652 15.4545V15.4263C7.16217 15.3071 7.16547 15.1867 7.16781 15.0674C7.17565 14.6938 7.17895 14.4182 7.17895 14.2381C7.17895 12.9699 7.13066 11.7951 7.03381 10.7126C6.936 9.63001 6.76046 8.68255 6.50719 7.86895C6.25295 7.05535 5.89169 6.42527 5.42134 5.97733C4.95098 5.52953 4.34333 5.30556 3.59728 5.30556C2.98508 5.30556 2.48102 5.38439 2.08605 5.54081C1.68985 5.69723 1.3129 5.94019 0.955078 6.26775C1.38719 6.61209 1.76868 7.11849 2.0972 7.79026C2.42475 8.46202 2.64184 9.30603 2.74653 10.321C2.83541 11.1864 2.89511 12.1495 2.92551 13.2084C2.95468 14.2685 3.02223 15.2914 3.12692 16.276C3.20121 17.0524 3.4769 17.6455 3.9551 18.0562C4.4322 18.467 5.05897 18.6717 5.83543 18.6717C6.13368 18.6717 6.44762 18.6413 6.77614 18.5817C7.10356 18.522 7.45464 18.4253 7.82829 18.2914C7.49977 19.142 7.06642 19.761 6.52975 20.1492C5.99184 20.5374 5.43262 20.731 4.85083 20.731C4.35791 20.731 3.87297 20.6004 3.39587 20.3393C2.91754 20.0783 2.50688 19.7014 2.16364 19.2085C1.88011 19.626 1.67196 20.0221 1.53687 20.3956C1.40301 20.7681 1.33546 21.1192 1.33546 21.4477C1.33546 22.2535 1.68655 22.8803 2.38761 23.3281C3.08977 23.776 3.9551 24 4.98468 24C5.9547 24 6.92128 23.7535 7.88455 23.2607C8.84673 22.7688 9.77162 21.9328 10.6606 20.7536C11.5485 19.5741 12.3508 17.9549 13.0676 15.8956C13.2307 15.4174 13.4367 14.8356 13.6831 14.1493C13.9296 13.4628 14.1749 12.7347 14.4213 11.9661C14.6678 11.1976 14.8725 10.4515 15.0369 9.72686C15.2012 9.00323 15.2833 8.36531 15.2833 7.81268C15.2833 7.06663 15.1234 6.46241 14.8016 5.99989Z" fill="black" fill-opacity="0.2"/>
<path d="M31.3843 5.67479C31.0928 5.4284 30.6124 5.30569 29.9406 5.30569C29.1787 5.30569 28.4327 5.46211 27.7012 5.77605C26.9697 6.08889 26.2834 6.47711 25.642 6.93963L26.9845 8.7311C26.8956 9.08892 26.7942 9.52558 26.6829 10.0409C26.5704 10.5552 26.4511 11.0931 26.3251 11.6523C26.1978 12.2126 26.0853 12.7382 25.9886 13.2311C25.8917 13.724 25.813 14.1347 25.7533 14.4621C25.4102 15.1497 24.9769 15.6718 24.4548 16.0297C23.9327 16.3875 23.432 16.5675 22.9549 16.5675C22.5373 16.5675 22.1829 16.4258 21.8914 16.1423C21.6001 15.8586 21.4548 15.4399 21.4548 14.8875C21.4548 14.5893 21.4999 14.1796 21.5899 13.6565C21.6787 13.1342 21.7947 12.548 21.9364 11.8987C22.0782 11.2495 22.2166 10.6047 22.3505 9.96209C22.4845 9.32073 22.597 8.72766 22.6859 8.18301C22.7759 7.63726 22.8209 7.20859 22.8209 6.89575C22.8209 6.32854 22.6825 5.92118 22.4068 5.67479C22.13 5.4284 21.6866 5.30569 21.0745 5.30569C20.6716 5.30569 20.1371 5.40584 19.4732 5.60725C18.8093 5.80989 18.1712 6.0743 17.5592 6.40283C17.8731 6.83604 18.0295 7.51468 18.0295 8.43958C18.0295 9.06636 17.9474 9.79439 17.783 10.6227C17.6187 11.4509 17.4545 12.3016 17.2902 13.1748C17.1258 14.048 17.0449 14.8807 17.0449 15.6718C17.0449 16.3582 17.1451 16.9737 17.3465 17.5184C17.5479 18.063 17.9068 18.4963 18.421 18.8169C18.9364 19.1378 19.6566 19.2986 20.5816 19.2986C21.5673 19.2986 22.4991 19.0972 23.3802 18.6944C24.1479 18.3434 24.7678 17.8675 25.2406 17.2672C25.3662 17.1077 25.4687 16.9314 25.5532 16.7467L26.0336 15.6965C26.0111 15.7664 25.6431 16.9479 25.6779 17.371C25.7253 17.856 25.9064 18.2825 26.2237 18.6494C26.5962 19.0815 27.2613 19.2986 28.2165 19.2986C29.1562 19.2986 30.044 18.9329 30.8802 18.2014C30.6417 17.9922 30.4661 17.7131 30.3547 17.362C30.2422 17.0109 30.187 16.6114 30.187 16.1636C30.187 15.6122 30.2422 14.9887 30.3547 14.2945C30.4661 13.6002 30.6045 12.8878 30.7688 12.1564C30.933 11.425 31.0928 10.7205 31.2504 10.0409C31.4068 9.36118 31.5407 8.74568 31.6532 8.19319C31.7647 7.6418 31.8209 7.20859 31.8209 6.89575C31.8209 6.32854 31.6758 5.92118 31.3843 5.67479Z" fill="#101828"/>
<path d="M31.3843 5.67479C31.0928 5.4284 30.6124 5.30569 29.9406 5.30569C29.1787 5.30569 28.4327 5.46211 27.7012 5.77605C26.9697 6.08889 26.2834 6.47711 25.642 6.93963L26.9845 8.7311C26.8956 9.08892 26.7942 9.52558 26.6829 10.0409C26.5704 10.5552 26.4511 11.0931 26.3251 11.6523C26.1978 12.2126 26.0853 12.7382 25.9886 13.2311C25.8917 13.724 25.813 14.1347 25.7533 14.4621C25.4102 15.1497 24.9769 15.6718 24.4548 16.0297C23.9327 16.3875 23.432 16.5675 22.9549 16.5675C22.5373 16.5675 22.1829 16.4258 21.8914 16.1423C21.6001 15.8586 21.4548 15.4399 21.4548 14.8875C21.4548 14.5893 21.4999 14.1796 21.5899 13.6565C21.6787 13.1342 21.7947 12.548 21.9364 11.8987C22.0782 11.2495 22.2166 10.6047 22.3505 9.96209C22.4845 9.32073 22.597 8.72766 22.6859 8.18301C22.7759 7.63726 22.8209 7.20859 22.8209 6.89575C22.8209 6.32854 22.6825 5.92118 22.4068 5.67479C22.13 5.4284 21.6866 5.30569 21.0745 5.30569C20.6716 5.30569 20.1371 5.40584 19.4732 5.60725C18.8093 5.80989 18.1712 6.0743 17.5592 6.40283C17.8731 6.83604 18.0295 7.51468 18.0295 8.43958C18.0295 9.06636 17.9474 9.79439 17.783 10.6227C17.6187 11.4509 17.4545 12.3016 17.2902 13.1748C17.1258 14.048 17.0449 14.8807 17.0449 15.6718C17.0449 16.3582 17.1451 16.9737 17.3465 17.5184C17.5479 18.063 17.9068 18.4963 18.421 18.8169C18.9364 19.1378 19.6566 19.2986 20.5816 19.2986C21.5673 19.2986 22.4991 19.0972 23.3802 18.6944C24.1479 18.3434 24.7678 17.8675 25.2406 17.2672C25.3662 17.1077 25.4687 16.9314 25.5532 16.7467L26.0336 15.6965C26.0111 15.7664 25.6431 16.9479 25.6779 17.371C25.7253 17.856 25.9064 18.2825 26.2237 18.6494C26.5962 19.0815 27.2613 19.2986 28.2165 19.2986C29.1562 19.2986 30.044 18.9329 30.8802 18.2014C30.6417 17.9922 30.4661 17.7131 30.3547 17.362C30.2422 17.0109 30.187 16.6114 30.187 16.1636C30.187 15.6122 30.2422 14.9887 30.3547 14.2945C30.4661 13.6002 30.6045 12.8878 30.7688 12.1564C30.933 11.425 31.0928 10.7205 31.2504 10.0409C31.4068 9.36118 31.5407 8.74568 31.6532 8.19319C31.7647 7.6418 31.8209 7.20859 31.8209 6.89575C31.8209 6.32854 31.6758 5.92118 31.3843 5.67479Z" fill="black" fill-opacity="0.2"/>
<path d="M31.3843 5.67479C31.0928 5.4284 30.6124 5.30569 29.9406 5.30569C29.1787 5.30569 28.4327 5.46211 27.7012 5.77605C26.9697 6.08889 26.2834 6.47711 25.642 6.93963L26.9845 8.7311C26.8956 9.08892 26.7942 9.52558 26.6829 10.0409C26.5704 10.5552 26.4511 11.0931 26.3251 11.6523C26.1978 12.2126 26.0853 12.7382 25.9886 13.2311C25.8917 13.724 25.813 14.1347 25.7533 14.4621C25.4102 15.1497 24.9769 15.6718 24.4548 16.0297C23.9327 16.3875 23.432 16.5675 22.9549 16.5675C22.5373 16.5675 22.1829 16.4258 21.8914 16.1423C21.6001 15.8586 21.4548 15.4399 21.4548 14.8875C21.4548 14.5893 21.4999 14.1796 21.5899 13.6565C21.6787 13.1342 21.7947 12.548 21.9364 11.8987C22.0782 11.2495 22.2166 10.6047 22.3505 9.96209C22.4845 9.32073 22.597 8.72766 22.6859 8.18301C22.7759 7.63726 22.8209 7.20859 22.8209 6.89575C22.8209 6.32854 22.6825 5.92118 22.4068 5.67479C22.13 5.4284 21.6866 5.30569 21.0745 5.30569C20.6716 5.30569 20.1371 5.40584 19.4732 5.60725C18.8093 5.80989 18.1712 6.0743 17.5592 6.40283C17.8731 6.83604 18.0295 7.51468 18.0295 8.43958C18.0295 9.06636 17.9474 9.79439 17.783 10.6227C17.6187 11.4509 17.4545 12.3016 17.2902 13.1748C17.1258 14.048 17.0449 14.8807 17.0449 15.6718C17.0449 16.3582 17.1451 16.9737 17.3465 17.5184C17.5479 18.063 17.9068 18.4963 18.421 18.8169C18.9364 19.1378 19.6566 19.2986 20.5816 19.2986C21.5673 19.2986 22.4991 19.0972 23.3802 18.6944C24.1479 18.3434 24.7678 17.8675 25.2406 17.2672C25.3662 17.1077 25.4687 16.9314 25.5532 16.7467L26.0336 15.6965C26.0111 15.7664 25.6431 16.9479 25.6779 17.371C25.7253 17.856 25.9064 18.2825 26.2237 18.6494C26.5962 19.0815 27.2613 19.2986 28.2165 19.2986C29.1562 19.2986 30.044 18.9329 30.8802 18.2014C30.6417 17.9922 30.4661 17.7131 30.3547 17.362C30.2422 17.0109 30.187 16.6114 30.187 16.1636C30.187 15.6122 30.2422 14.9887 30.3547 14.2945C30.4661 13.6002 30.6045 12.8878 30.7688 12.1564C30.933 11.425 31.0928 10.7205 31.2504 10.0409C31.4068 9.36118 31.5407 8.74568 31.6532 8.19319C31.7647 7.6418 31.8209 7.20859 31.8209 6.89575C31.8209 6.32854 31.6758 5.92118 31.3843 5.67479Z" fill="black" fill-opacity="0.2"/>
<path d="M31.3843 5.67479C31.0928 5.4284 30.6124 5.30569 29.9406 5.30569C29.1787 5.30569 28.4327 5.46211 27.7012 5.77605C26.9697 6.08889 26.2834 6.47711 25.642 6.93963L26.9845 8.7311C26.8956 9.08892 26.7942 9.52558 26.6829 10.0409C26.5704 10.5552 26.4511 11.0931 26.3251 11.6523C26.1978 12.2126 26.0853 12.7382 25.9886 13.2311C25.8917 13.724 25.813 14.1347 25.7533 14.4621C25.4102 15.1497 24.9769 15.6718 24.4548 16.0297C23.9327 16.3875 23.432 16.5675 22.9549 16.5675C22.5373 16.5675 22.1829 16.4258 21.8914 16.1423C21.6001 15.8586 21.4548 15.4399 21.4548 14.8875C21.4548 14.5893 21.4999 14.1796 21.5899 13.6565C21.6787 13.1342 21.7947 12.548 21.9364 11.8987C22.0782 11.2495 22.2166 10.6047 22.3505 9.96209C22.4845 9.32073 22.597 8.72766 22.6859 8.18301C22.7759 7.63726 22.8209 7.20859 22.8209 6.89575C22.8209 6.32854 22.6825 5.92118 22.4068 5.67479C22.13 5.4284 21.6866 5.30569 21.0745 5.30569C20.6716 5.30569 20.1371 5.40584 19.4732 5.60725C18.8093 5.80989 18.1712 6.0743 17.5592 6.40283C17.8731 6.83604 18.0295 7.51468 18.0295 8.43958C18.0295 9.06636 17.9474 9.79439 17.783 10.6227C17.6187 11.4509 17.4545 12.3016 17.2902 13.1748C17.1258 14.048 17.0449 14.8807 17.0449 15.6718C17.0449 16.3582 17.1451 16.9737 17.3465 17.5184C17.5479 18.063 17.9068 18.4963 18.421 18.8169C18.9364 19.1378 19.6566 19.2986 20.5816 19.2986C21.5673 19.2986 22.4991 19.0972 23.3802 18.6944C24.1479 18.3434 24.7678 17.8675 25.2406 17.2672C25.3662 17.1077 25.4687 16.9314 25.5532 16.7467L26.0336 15.6965C26.0111 15.7664 25.6431 16.9479 25.6779 17.371C25.7253 17.856 25.9064 18.2825 26.2237 18.6494C26.5962 19.0815 27.2613 19.2986 28.2165 19.2986C29.1562 19.2986 30.044 18.9329 30.8802 18.2014C30.6417 17.9922 30.4661 17.7131 30.3547 17.362C30.2422 17.0109 30.187 16.6114 30.187 16.1636C30.187 15.6122 30.2422 14.9887 30.3547 14.2945C30.4661 13.6002 30.6045 12.8878 30.7688 12.1564C30.933 11.425 31.0928 10.7205 31.2504 10.0409C31.4068 9.36118 31.5407 8.74568 31.6532 8.19319C31.7647 7.6418 31.8209 7.20859 31.8209 6.89575C31.8209 6.32854 31.6758 5.92118 31.3843 5.67479Z" fill="black" fill-opacity="0.2"/>
<path d="M56.0458 10.5776C56.2618 9.67512 56.37 8.82107 56.37 8.01421C56.37 7.08917 56.146 6.40613 55.6982 5.96617C55.2503 5.52622 54.5718 5.30569 53.6614 5.30569C52.5709 5.30569 51.5413 5.61165 50.5713 6.22384C49.6014 6.83604 48.6753 7.89493 47.7953 9.40286L47.5714 9.29033C47.7199 8.75352 47.7953 8.2606 47.7953 7.8128C47.7953 6.93275 47.541 6.29469 47.0335 5.89862C46.526 5.50365 45.8767 5.30569 45.0868 5.30569C43.9964 5.30569 42.9668 5.61165 41.9968 6.22384C41.0267 6.83604 40.1006 7.89493 39.2207 9.40286L38.9967 9.29033C39.1306 8.99207 39.2499 8.63425 39.3546 8.21561C39.4593 7.79808 39.511 7.39527 39.511 7.00704C39.511 6.48496 39.3624 6.07086 39.0632 5.76477C38.7649 5.45867 38.3024 5.30569 37.6756 5.30569C36.9443 5.30569 36.2241 5.42826 35.5151 5.67479C34.8062 5.92118 34.1457 6.216 33.5335 6.55925L34.6982 8.35071C34.5485 8.97749 34.3921 9.69314 34.2278 10.5C34.0636 11.3056 33.9104 12.1079 33.7687 12.907C33.6269 13.7047 33.5111 14.4282 33.4221 15.0776C33.3321 15.7269 33.2871 16.2086 33.2871 16.5225C33.2871 17.4182 33.4885 18.1046 33.8913 18.5817C34.2954 19.06 34.9671 19.2986 35.9067 19.2986C36.7575 19.2986 37.5778 18.9328 38.37 18.2014C38.056 17.7682 37.8996 17.0896 37.8996 16.1634C37.8996 15.0743 38.056 14.0817 38.37 13.186C38.6828 12.2902 39.0823 11.5183 39.5672 10.8691C40.0523 10.2198 40.5529 9.71557 41.0673 9.35774C41.5827 8.99991 42.0417 8.82107 42.4446 8.82107C42.7282 8.82107 42.9262 8.90994 43.0376 9.08879C43.1502 9.26777 43.2053 9.51416 43.2053 9.8281C43.2053 10.231 43.1389 10.7092 43.0039 11.2606C42.8699 11.8131 42.7135 12.4028 42.5336 13.0295C42.3546 13.6563 42.1982 14.272 42.0643 14.8762C41.9292 15.4816 41.8629 16.0296 41.8629 16.5225C41.8629 17.4182 42.0643 18.1046 42.4671 18.5817C42.8699 19.06 43.5417 19.2986 44.4813 19.2986C45.332 19.2986 46.1535 18.9328 46.9447 18.2014C46.6306 17.7682 46.4742 17.0896 46.4742 16.1634C46.4742 15.0743 46.6306 14.0817 46.9447 13.186C47.2574 12.2902 47.6569 11.5183 48.1419 10.8691C48.6269 10.2198 49.1276 9.71557 49.6419 9.35774C50.1572 8.99991 50.6164 8.82107 51.0192 8.82107C51.3028 8.82107 51.5009 8.90994 51.6122 9.08879C51.7247 9.26777 51.7799 9.51416 51.7799 9.8281C51.7799 10.231 51.7136 10.7092 51.5785 11.2606C51.4446 11.8131 51.2882 12.4028 51.1081 13.0295C50.9291 13.6563 50.7727 14.272 50.6389 14.8762C50.5039 15.4816 50.4375 16.0296 50.4375 16.5225C50.4375 17.4182 50.6389 18.1046 51.0417 18.5817C51.4446 19.06 52.1164 19.2986 53.056 19.2986C53.9078 19.2986 54.7282 18.9328 55.5192 18.2014C55.2064 17.7682 55.0489 17.0896 55.0489 16.1634C55.0489 15.2385 55.1614 14.3022 55.3854 13.3548C55.6092 12.4062 55.8286 11.4812 56.0458 10.5776Z" fill="#101828"/>
<path d="M56.0458 10.5776C56.2618 9.67512 56.37 8.82107 56.37 8.01421C56.37 7.08917 56.146 6.40613 55.6982 5.96617C55.2503 5.52622 54.5718 5.30569 53.6614 5.30569C52.5709 5.30569 51.5413 5.61165 50.5713 6.22384C49.6014 6.83604 48.6753 7.89493 47.7953 9.40286L47.5714 9.29033C47.7199 8.75352 47.7953 8.2606 47.7953 7.8128C47.7953 6.93275 47.541 6.29469 47.0335 5.89862C46.526 5.50365 45.8767 5.30569 45.0868 5.30569C43.9964 5.30569 42.9668 5.61165 41.9968 6.22384C41.0267 6.83604 40.1006 7.89493 39.2207 9.40286L38.9967 9.29033C39.1306 8.99207 39.2499 8.63425 39.3546 8.21561C39.4593 7.79808 39.511 7.39527 39.511 7.00704C39.511 6.48496 39.3624 6.07086 39.0632 5.76477C38.7649 5.45867 38.3024 5.30569 37.6756 5.30569C36.9443 5.30569 36.2241 5.42826 35.5151 5.67479C34.8062 5.92118 34.1457 6.216 33.5335 6.55925L34.6982 8.35071C34.5485 8.97749 34.3921 9.69314 34.2278 10.5C34.0636 11.3056 33.9104 12.1079 33.7687 12.907C33.6269 13.7047 33.5111 14.4282 33.4221 15.0776C33.3321 15.7269 33.2871 16.2086 33.2871 16.5225C33.2871 17.4182 33.4885 18.1046 33.8913 18.5817C34.2954 19.06 34.9671 19.2986 35.9067 19.2986C36.7575 19.2986 37.5778 18.9328 38.37 18.2014C38.056 17.7682 37.8996 17.0896 37.8996 16.1634C37.8996 15.0743 38.056 14.0817 38.37 13.186C38.6828 12.2902 39.0823 11.5183 39.5672 10.8691C40.0523 10.2198 40.5529 9.71557 41.0673 9.35774C41.5827 8.99991 42.0417 8.82107 42.4446 8.82107C42.7282 8.82107 42.9262 8.90994 43.0376 9.08879C43.1502 9.26777 43.2053 9.51416 43.2053 9.8281C43.2053 10.231 43.1389 10.7092 43.0039 11.2606C42.8699 11.8131 42.7135 12.4028 42.5336 13.0295C42.3546 13.6563 42.1982 14.272 42.0643 14.8762C41.9292 15.4816 41.8629 16.0296 41.8629 16.5225C41.8629 17.4182 42.0643 18.1046 42.4671 18.5817C42.8699 19.06 43.5417 19.2986 44.4813 19.2986C45.332 19.2986 46.1535 18.9328 46.9447 18.2014C46.6306 17.7682 46.4742 17.0896 46.4742 16.1634C46.4742 15.0743 46.6306 14.0817 46.9447 13.186C47.2574 12.2902 47.6569 11.5183 48.1419 10.8691C48.6269 10.2198 49.1276 9.71557 49.6419 9.35774C50.1572 8.99991 50.6164 8.82107 51.0192 8.82107C51.3028 8.82107 51.5009 8.90994 51.6122 9.08879C51.7247 9.26777 51.7799 9.51416 51.7799 9.8281C51.7799 10.231 51.7136 10.7092 51.5785 11.2606C51.4446 11.8131 51.2882 12.4028 51.1081 13.0295C50.9291 13.6563 50.7727 14.272 50.6389 14.8762C50.5039 15.4816 50.4375 16.0296 50.4375 16.5225C50.4375 17.4182 50.6389 18.1046 51.0417 18.5817C51.4446 19.06 52.1164 19.2986 53.056 19.2986C53.9078 19.2986 54.7282 18.9328 55.5192 18.2014C55.2064 17.7682 55.0489 17.0896 55.0489 16.1634C55.0489 15.2385 55.1614 14.3022 55.3854 13.3548C55.6092 12.4062 55.8286 11.4812 56.0458 10.5776Z" fill="black" fill-opacity="0.2"/>
<path d="M56.0458 10.5776C56.2618 9.67512 56.37 8.82107 56.37 8.01421C56.37 7.08917 56.146 6.40613 55.6982 5.96617C55.2503 5.52622 54.5718 5.30569 53.6614 5.30569C52.5709 5.30569 51.5413 5.61165 50.5713 6.22384C49.6014 6.83604 48.6753 7.89493 47.7953 9.40286L47.5714 9.29033C47.7199 8.75352 47.7953 8.2606 47.7953 7.8128C47.7953 6.93275 47.541 6.29469 47.0335 5.89862C46.526 5.50365 45.8767 5.30569 45.0868 5.30569C43.9964 5.30569 42.9668 5.61165 41.9968 6.22384C41.0267 6.83604 40.1006 7.89493 39.2207 9.40286L38.9967 9.29033C39.1306 8.99207 39.2499 8.63425 39.3546 8.21561C39.4593 7.79808 39.511 7.39527 39.511 7.00704C39.511 6.48496 39.3624 6.07086 39.0632 5.76477C38.7649 5.45867 38.3024 5.30569 37.6756 5.30569C36.9443 5.30569 36.2241 5.42826 35.5151 5.67479C34.8062 5.92118 34.1457 6.216 33.5335 6.55925L34.6982 8.35071C34.5485 8.97749 34.3921 9.69314 34.2278 10.5C34.0636 11.3056 33.9104 12.1079 33.7687 12.907C33.6269 13.7047 33.5111 14.4282 33.4221 15.0776C33.3321 15.7269 33.2871 16.2086 33.2871 16.5225C33.2871 17.4182 33.4885 18.1046 33.8913 18.5817C34.2954 19.06 34.9671 19.2986 35.9067 19.2986C36.7575 19.2986 37.5778 18.9328 38.37 18.2014C38.056 17.7682 37.8996 17.0896 37.8996 16.1634C37.8996 15.0743 38.056 14.0817 38.37 13.186C38.6828 12.2902 39.0823 11.5183 39.5672 10.8691C40.0523 10.2198 40.5529 9.71557 41.0673 9.35774C41.5827 8.99991 42.0417 8.82107 42.4446 8.82107C42.7282 8.82107 42.9262 8.90994 43.0376 9.08879C43.1502 9.26777 43.2053 9.51416 43.2053 9.8281C43.2053 10.231 43.1389 10.7092 43.0039 11.2606C42.8699 11.8131 42.7135 12.4028 42.5336 13.0295C42.3546 13.6563 42.1982 14.272 42.0643 14.8762C41.9292 15.4816 41.8629 16.0296 41.8629 16.5225C41.8629 17.4182 42.0643 18.1046 42.4671 18.5817C42.8699 19.06 43.5417 19.2986 44.4813 19.2986C45.332 19.2986 46.1535 18.9328 46.9447 18.2014C46.6306 17.7682 46.4742 17.0896 46.4742 16.1634C46.4742 15.0743 46.6306 14.0817 46.9447 13.186C47.2574 12.2902 47.6569 11.5183 48.1419 10.8691C48.6269 10.2198 49.1276 9.71557 49.6419 9.35774C50.1572 8.99991 50.6164 8.82107 51.0192 8.82107C51.3028 8.82107 51.5009 8.90994 51.6122 9.08879C51.7247 9.26777 51.7799 9.51416 51.7799 9.8281C51.7799 10.231 51.7136 10.7092 51.5785 11.2606C51.4446 11.8131 51.2882 12.4028 51.1081 13.0295C50.9291 13.6563 50.7727 14.272 50.6389 14.8762C50.5039 15.4816 50.4375 16.0296 50.4375 16.5225C50.4375 17.4182 50.6389 18.1046 51.0417 18.5817C51.4446 19.06 52.1164 19.2986 53.056 19.2986C53.9078 19.2986 54.7282 18.9328 55.5192 18.2014C55.2064 17.7682 55.0489 17.0896 55.0489 16.1634C55.0489 15.2385 55.1614 14.3022 55.3854 13.3548C55.6092 12.4062 55.8286 11.4812 56.0458 10.5776Z" fill="black" fill-opacity="0.2"/>
<path d="M56.0458 10.5776C56.2618 9.67512 56.37 8.82107 56.37 8.01421C56.37 7.08917 56.146 6.40613 55.6982 5.96617C55.2503 5.52622 54.5718 5.30569 53.6614 5.30569C52.5709 5.30569 51.5413 5.61165 50.5713 6.22384C49.6014 6.83604 48.6753 7.89493 47.7953 9.40286L47.5714 9.29033C47.7199 8.75352 47.7953 8.2606 47.7953 7.8128C47.7953 6.93275 47.541 6.29469 47.0335 5.89862C46.526 5.50365 45.8767 5.30569 45.0868 5.30569C43.9964 5.30569 42.9668 5.61165 41.9968 6.22384C41.0267 6.83604 40.1006 7.89493 39.2207 9.40286L38.9967 9.29033C39.1306 8.99207 39.2499 8.63425 39.3546 8.21561C39.4593 7.79808 39.511 7.39527 39.511 7.00704C39.511 6.48496 39.3624 6.07086 39.0632 5.76477C38.7649 5.45867 38.3024 5.30569 37.6756 5.30569C36.9443 5.30569 36.2241 5.42826 35.5151 5.67479C34.8062 5.92118 34.1457 6.216 33.5335 6.55925L34.6982 8.35071C34.5485 8.97749 34.3921 9.69314 34.2278 10.5C34.0636 11.3056 33.9104 12.1079 33.7687 12.907C33.6269 13.7047 33.5111 14.4282 33.4221 15.0776C33.3321 15.7269 33.2871 16.2086 33.2871 16.5225C33.2871 17.4182 33.4885 18.1046 33.8913 18.5817C34.2954 19.06 34.9671 19.2986 35.9067 19.2986C36.7575 19.2986 37.5778 18.9328 38.37 18.2014C38.056 17.7682 37.8996 17.0896 37.8996 16.1634C37.8996 15.0743 38.056 14.0817 38.37 13.186C38.6828 12.2902 39.0823 11.5183 39.5672 10.8691C40.0523 10.2198 40.5529 9.71557 41.0673 9.35774C41.5827 8.99991 42.0417 8.82107 42.4446 8.82107C42.7282 8.82107 42.9262 8.90994 43.0376 9.08879C43.1502 9.26777 43.2053 9.51416 43.2053 9.8281C43.2053 10.231 43.1389 10.7092 43.0039 11.2606C42.8699 11.8131 42.7135 12.4028 42.5336 13.0295C42.3546 13.6563 42.1982 14.272 42.0643 14.8762C41.9292 15.4816 41.8629 16.0296 41.8629 16.5225C41.8629 17.4182 42.0643 18.1046 42.4671 18.5817C42.8699 19.06 43.5417 19.2986 44.4813 19.2986C45.332 19.2986 46.1535 18.9328 46.9447 18.2014C46.6306 17.7682 46.4742 17.0896 46.4742 16.1634C46.4742 15.0743 46.6306 14.0817 46.9447 13.186C47.2574 12.2902 47.6569 11.5183 48.1419 10.8691C48.6269 10.2198 49.1276 9.71557 49.6419 9.35774C50.1572 8.99991 50.6164 8.82107 51.0192 8.82107C51.3028 8.82107 51.5009 8.90994 51.6122 9.08879C51.7247 9.26777 51.7799 9.51416 51.7799 9.8281C51.7799 10.231 51.7136 10.7092 51.5785 11.2606C51.4446 11.8131 51.2882 12.4028 51.1081 13.0295C50.9291 13.6563 50.7727 14.272 50.6389 14.8762C50.5039 15.4816 50.4375 16.0296 50.4375 16.5225C50.4375 17.4182 50.6389 18.1046 51.0417 18.5817C51.4446 19.06 52.1164 19.2986 53.056 19.2986C53.9078 19.2986 54.7282 18.9328 55.5192 18.2014C55.2064 17.7682 55.0489 17.0896 55.0489 16.1634C55.0489 15.2385 55.1614 14.3022 55.3854 13.3548C55.6092 12.4062 55.8286 11.4812 56.0458 10.5776Z" fill="black" fill-opacity="0.2"/>
<path d="M70.5123 8.86504C70.8038 8.49263 70.9489 8.00755 70.9489 7.41007C70.9489 6.79788 70.7542 6.29491 70.3671 5.89884C69.9789 5.50387 69.3893 5.30577 68.5982 5.30577C68.0456 5.30577 67.5381 5.45545 67.0757 5.75357C66.6132 6.05182 66.2621 6.42547 66.0236 6.87327C65.5307 6.84286 64.896 6.74945 64.1207 6.59303C63.3442 6.43661 62.5419 6.2308 61.7137 5.97753C60.8856 5.7233 60.135 5.46219 59.4632 5.19323C59.3889 5.65685 59.3292 6.04054 59.2842 6.34664C59.2392 6.65274 59.2167 6.94756 59.2167 7.23109C59.2167 7.87259 59.3551 8.4138 59.632 8.85376C59.9077 9.29495 60.4005 9.63806 61.1094 9.88458C61.8184 10.1299 62.8142 10.2761 64.0981 10.3211C64.0981 10.3211 64.7351 10.3211 65.094 10.275C64.8015 10.3291 63.9597 10.5507 63.0922 11.388L60.4263 14.2169C59.516 14.3205 58.8443 14.6568 58.4111 15.224C57.9778 15.7911 57.7617 16.3807 57.7617 16.9929C57.7617 17.5443 57.9407 18.0418 58.2996 18.4817C58.6574 18.9217 59.1795 19.1422 59.866 19.1422C60.2992 19.1422 60.71 19.0668 61.0982 18.9183C61.4852 18.7687 61.9039 18.5222 62.3518 18.179C63.1428 18.4783 63.9002 18.7383 64.6236 18.9622C65.3484 19.1861 66.1349 19.2987 66.9856 19.2987C67.6271 19.2987 68.2133 19.1828 68.7434 18.951C69.2733 18.7203 69.6987 18.3996 70.0193 17.9888C70.3402 17.5782 70.501 17.1044 70.501 16.5676C70.501 16.1637 70.456 15.78 70.3671 15.4142C70.2771 15.0485 70.1657 14.694 70.0306 14.3507L66.9856 15.5369C66.6278 15.5222 66.2541 15.4704 65.8672 15.3805C65.4778 15.2916 65.0829 15.1869 64.6799 15.0676L69.315 9.76077C69.8214 9.5368 70.2209 9.23868 70.5123 8.86504Z" fill="#101828"/>
<path d="M70.5123 8.86504C70.8038 8.49263 70.9489 8.00755 70.9489 7.41007C70.9489 6.79788 70.7542 6.29491 70.3671 5.89884C69.9789 5.50387 69.3893 5.30577 68.5982 5.30577C68.0456 5.30577 67.5381 5.45545 67.0757 5.75357C66.6132 6.05182 66.2621 6.42547 66.0236 6.87327C65.5307 6.84286 64.896 6.74945 64.1207 6.59303C63.3442 6.43661 62.5419 6.2308 61.7137 5.97753C60.8856 5.7233 60.135 5.46219 59.4632 5.19323C59.3889 5.65685 59.3292 6.04054 59.2842 6.34664C59.2392 6.65274 59.2167 6.94756 59.2167 7.23109C59.2167 7.87259 59.3551 8.4138 59.632 8.85376C59.9077 9.29495 60.4005 9.63806 61.1094 9.88458C61.8184 10.1299 62.8142 10.2761 64.0981 10.3211C64.0981 10.3211 64.7351 10.3211 65.094 10.275C64.8015 10.3291 63.9597 10.5507 63.0922 11.388L60.4263 14.2169C59.516 14.3205 58.8443 14.6568 58.4111 15.224C57.9778 15.7911 57.7617 16.3807 57.7617 16.9929C57.7617 17.5443 57.9407 18.0418 58.2996 18.4817C58.6574 18.9217 59.1795 19.1422 59.866 19.1422C60.2992 19.1422 60.71 19.0668 61.0982 18.9183C61.4852 18.7687 61.9039 18.5222 62.3518 18.179C63.1428 18.4783 63.9002 18.7383 64.6236 18.9622C65.3484 19.1861 66.1349 19.2987 66.9856 19.2987C67.6271 19.2987 68.2133 19.1828 68.7434 18.951C69.2733 18.7203 69.6987 18.3996 70.0193 17.9888C70.3402 17.5782 70.501 17.1044 70.501 16.5676C70.501 16.1637 70.456 15.78 70.3671 15.4142C70.2771 15.0485 70.1657 14.694 70.0306 14.3507L66.9856 15.5369C66.6278 15.5222 66.2541 15.4704 65.8672 15.3805C65.4778 15.2916 65.0829 15.1869 64.6799 15.0676L69.315 9.76077C69.8214 9.5368 70.2209 9.23868 70.5123 8.86504Z" fill="black" fill-opacity="0.2"/>
<path d="M70.5123 8.86504C70.8038 8.49263 70.9489 8.00755 70.9489 7.41007C70.9489 6.79788 70.7542 6.29491 70.3671 5.89884C69.9789 5.50387 69.3893 5.30577 68.5982 5.30577C68.0456 5.30577 67.5381 5.45545 67.0757 5.75357C66.6132 6.05182 66.2621 6.42547 66.0236 6.87327C65.5307 6.84286 64.896 6.74945 64.1207 6.59303C63.3442 6.43661 62.5419 6.2308 61.7137 5.97753C60.8856 5.7233 60.135 5.46219 59.4632 5.19323C59.3889 5.65685 59.3292 6.04054 59.2842 6.34664C59.2392 6.65274 59.2167 6.94756 59.2167 7.23109C59.2167 7.87259 59.3551 8.4138 59.632 8.85376C59.9077 9.29495 60.4005 9.63806 61.1094 9.88458C61.8184 10.1299 62.8142 10.2761 64.0981 10.3211C64.0981 10.3211 64.7351 10.3211 65.094 10.275C64.8015 10.3291 63.9597 10.5507 63.0922 11.388L60.4263 14.2169C59.516 14.3205 58.8443 14.6568 58.4111 15.224C57.9778 15.7911 57.7617 16.3807 57.7617 16.9929C57.7617 17.5443 57.9407 18.0418 58.2996 18.4817C58.6574 18.9217 59.1795 19.1422 59.866 19.1422C60.2992 19.1422 60.71 19.0668 61.0982 18.9183C61.4852 18.7687 61.9039 18.5222 62.3518 18.179C63.1428 18.4783 63.9002 18.7383 64.6236 18.9622C65.3484 19.1861 66.1349 19.2987 66.9856 19.2987C67.6271 19.2987 68.2133 19.1828 68.7434 18.951C69.2733 18.7203 69.6987 18.3996 70.0193 17.9888C70.3402 17.5782 70.501 17.1044 70.501 16.5676C70.501 16.1637 70.456 15.78 70.3671 15.4142C70.2771 15.0485 70.1657 14.694 70.0306 14.3507L66.9856 15.5369C66.6278 15.5222 66.2541 15.4704 65.8672 15.3805C65.4778 15.2916 65.0829 15.1869 64.6799 15.0676L69.315 9.76077C69.8214 9.5368 70.2209 9.23868 70.5123 8.86504Z" fill="black" fill-opacity="0.2"/>
<path d="M70.5123 8.86504C70.8038 8.49263 70.9489 8.00755 70.9489 7.41007C70.9489 6.79788 70.7542 6.29491 70.3671 5.89884C69.9789 5.50387 69.3893 5.30577 68.5982 5.30577C68.0456 5.30577 67.5381 5.45545 67.0757 5.75357C66.6132 6.05182 66.2621 6.42547 66.0236 6.87327C65.5307 6.84286 64.896 6.74945 64.1207 6.59303C63.3442 6.43661 62.5419 6.2308 61.7137 5.97753C60.8856 5.7233 60.135 5.46219 59.4632 5.19323C59.3889 5.65685 59.3292 6.04054 59.2842 6.34664C59.2392 6.65274 59.2167 6.94756 59.2167 7.23109C59.2167 7.87259 59.3551 8.4138 59.632 8.85376C59.9077 9.29495 60.4005 9.63806 61.1094 9.88458C61.8184 10.1299 62.8142 10.2761 64.0981 10.3211C64.0981 10.3211 64.7351 10.3211 65.094 10.275C64.8015 10.3291 63.9597 10.5507 63.0922 11.388L60.4263 14.2169C59.516 14.3205 58.8443 14.6568 58.4111 15.224C57.9778 15.7911 57.7617 16.3807 57.7617 16.9929C57.7617 17.5443 57.9407 18.0418 58.2996 18.4817C58.6574 18.9217 59.1795 19.1422 59.866 19.1422C60.2992 19.1422 60.71 19.0668 61.0982 18.9183C61.4852 18.7687 61.9039 18.5222 62.3518 18.179C63.1428 18.4783 63.9002 18.7383 64.6236 18.9622C65.3484 19.1861 66.1349 19.2987 66.9856 19.2987C67.6271 19.2987 68.2133 19.1828 68.7434 18.951C69.2733 18.7203 69.6987 18.3996 70.0193 17.9888C70.3402 17.5782 70.501 17.1044 70.501 16.5676C70.501 16.1637 70.456 15.78 70.3671 15.4142C70.2771 15.0485 70.1657 14.694 70.0306 14.3507L66.9856 15.5369C66.6278 15.5222 66.2541 15.4704 65.8672 15.3805C65.4778 15.2916 65.0829 15.1869 64.6799 15.0676L69.315 9.76077C69.8214 9.5368 70.2209 9.23868 70.5123 8.86504Z" fill="black" fill-opacity="0.2"/>
<path d="M79.3735 0.436669C78.9257 0.145153 78.3585 1.52588e-05 77.672 1.52588e-05C77.2535 1.52588e-05 76.8101 0.0821465 76.3398 0.245307C75.8694 0.410807 75.4699 0.652658 75.1425 0.973477C74.8138 1.29416 74.6496 1.70151 74.6496 2.19319C74.6496 2.7007 74.8736 3.10475 75.3213 3.40286C75.7693 3.70112 76.3363 3.8508 77.0228 3.8508C77.5596 3.8508 78.0559 3.76069 78.5115 3.58185C78.9662 3.40286 79.3364 3.14519 79.6199 2.80993C79.9036 2.47343 80.0453 2.08974 80.0453 1.65652C80.0453 1.1343 79.8213 0.726946 79.3735 0.436669ZM78.9369 5.70858C78.6905 5.43962 78.2538 5.30576 77.627 5.30576C76.9103 5.30576 76.1946 5.46672 75.4778 5.7874C74.761 6.10808 74.0071 6.5076 73.2172 6.9847L74.4707 8.86503C74.3211 9.52221 74.1646 10.2233 74.0004 10.9704C73.836 11.7165 73.6785 12.4513 73.5299 13.1749C73.3803 13.8996 73.2611 14.5556 73.1721 15.1452C73.0821 15.7348 73.0371 16.1941 73.0371 16.5226C73.0371 17.4183 73.2385 18.1048 73.6424 18.5819C74.0454 19.0601 74.7239 19.2986 75.6792 19.2986C76.62 19.2986 77.5078 18.933 78.3439 18.2015C78.1041 17.9923 77.9298 17.7131 77.8173 17.362C77.7059 17.011 77.6496 16.6115 77.6496 16.1637C77.6496 15.5964 77.7059 14.9516 77.8173 14.227C77.9298 13.5034 78.0671 12.7653 78.2314 12.0113C78.3957 11.2574 78.5599 10.5372 78.7242 9.85074C78.8886 9.16439 79.027 8.56678 79.1384 8.05941C79.2497 7.55177 79.306 7.1861 79.306 6.96213C79.306 6.39506 79.1834 5.97753 78.9369 5.70858Z" fill="#101828"/>
<path d="M79.3735 0.436669C78.9257 0.145153 78.3585 1.52588e-05 77.672 1.52588e-05C77.2535 1.52588e-05 76.8101 0.0821465 76.3398 0.245307C75.8694 0.410807 75.4699 0.652658 75.1425 0.973477C74.8138 1.29416 74.6496 1.70151 74.6496 2.19319C74.6496 2.7007 74.8736 3.10475 75.3213 3.40286C75.7693 3.70112 76.3363 3.8508 77.0228 3.8508C77.5596 3.8508 78.0559 3.76069 78.5115 3.58185C78.9662 3.40286 79.3364 3.14519 79.6199 2.80993C79.9036 2.47343 80.0453 2.08974 80.0453 1.65652C80.0453 1.1343 79.8213 0.726946 79.3735 0.436669ZM78.9369 5.70858C78.6905 5.43962 78.2538 5.30576 77.627 5.30576C76.9103 5.30576 76.1946 5.46672 75.4778 5.7874C74.761 6.10808 74.0071 6.5076 73.2172 6.9847L74.4707 8.86503C74.3211 9.52221 74.1646 10.2233 74.0004 10.9704C73.836 11.7165 73.6785 12.4513 73.5299 13.1749C73.3803 13.8996 73.2611 14.5556 73.1721 15.1452C73.0821 15.7348 73.0371 16.1941 73.0371 16.5226C73.0371 17.4183 73.2385 18.1048 73.6424 18.5819C74.0454 19.0601 74.7239 19.2986 75.6792 19.2986C76.62 19.2986 77.5078 18.933 78.3439 18.2015C78.1041 17.9923 77.9298 17.7131 77.8173 17.362C77.7059 17.011 77.6496 16.6115 77.6496 16.1637C77.6496 15.5964 77.7059 14.9516 77.8173 14.227C77.9298 13.5034 78.0671 12.7653 78.2314 12.0113C78.3957 11.2574 78.5599 10.5372 78.7242 9.85074C78.8886 9.16439 79.027 8.56678 79.1384 8.05941C79.2497 7.55177 79.306 7.1861 79.306 6.96213C79.306 6.39506 79.1834 5.97753 78.9369 5.70858Z" fill="black" fill-opacity="0.2"/>
<path d="M79.3735 0.436669C78.9257 0.145153 78.3585 1.52588e-05 77.672 1.52588e-05C77.2535 1.52588e-05 76.8101 0.0821465 76.3398 0.245307C75.8694 0.410807 75.4699 0.652658 75.1425 0.973477C74.8138 1.29416 74.6496 1.70151 74.6496 2.19319C74.6496 2.7007 74.8736 3.10475 75.3213 3.40286C75.7693 3.70112 76.3363 3.8508 77.0228 3.8508C77.5596 3.8508 78.0559 3.76069 78.5115 3.58185C78.9662 3.40286 79.3364 3.14519 79.6199 2.80993C79.9036 2.47343 80.0453 2.08974 80.0453 1.65652C80.0453 1.1343 79.8213 0.726946 79.3735 0.436669ZM78.9369 5.70858C78.6905 5.43962 78.2538 5.30576 77.627 5.30576C76.9103 5.30576 76.1946 5.46672 75.4778 5.7874C74.761 6.10808 74.0071 6.5076 73.2172 6.9847L74.4707 8.86503C74.3211 9.52221 74.1646 10.2233 74.0004 10.9704C73.836 11.7165 73.6785 12.4513 73.5299 13.1749C73.3803 13.8996 73.2611 14.5556 73.1721 15.1452C73.0821 15.7348 73.0371 16.1941 73.0371 16.5226C73.0371 17.4183 73.2385 18.1048 73.6424 18.5819C74.0454 19.0601 74.7239 19.2986 75.6792 19.2986C76.62 19.2986 77.5078 18.933 78.3439 18.2015C78.1041 17.9923 77.9298 17.7131 77.8173 17.362C77.7059 17.011 77.6496 16.6115 77.6496 16.1637C77.6496 15.5964 77.7059 14.9516 77.8173 14.227C77.9298 13.5034 78.0671 12.7653 78.2314 12.0113C78.3957 11.2574 78.5599 10.5372 78.7242 9.85074C78.8886 9.16439 79.027 8.56678 79.1384 8.05941C79.2497 7.55177 79.306 7.1861 79.306 6.96213C79.306 6.39506 79.1834 5.97753 78.9369 5.70858Z" fill="black" fill-opacity="0.2"/>
<path d="M79.3735 0.436669C78.9257 0.145153 78.3585 1.52588e-05 77.672 1.52588e-05C77.2535 1.52588e-05 76.8101 0.0821465 76.3398 0.245307C75.8694 0.410807 75.4699 0.652658 75.1425 0.973477C74.8138 1.29416 74.6496 1.70151 74.6496 2.19319C74.6496 2.7007 74.8736 3.10475 75.3213 3.40286C75.7693 3.70112 76.3363 3.8508 77.0228 3.8508C77.5596 3.8508 78.0559 3.76069 78.5115 3.58185C78.9662 3.40286 79.3364 3.14519 79.6199 2.80993C79.9036 2.47343 80.0453 2.08974 80.0453 1.65652C80.0453 1.1343 79.8213 0.726946 79.3735 0.436669ZM78.9369 5.70858C78.6905 5.43962 78.2538 5.30576 77.627 5.30576C76.9103 5.30576 76.1946 5.46672 75.4778 5.7874C74.761 6.10808 74.0071 6.5076 73.2172 6.9847L74.4707 8.86503C74.3211 9.52221 74.1646 10.2233 74.0004 10.9704C73.836 11.7165 73.6785 12.4513 73.5299 13.1749C73.3803 13.8996 73.2611 14.5556 73.1721 15.1452C73.0821 15.7348 73.0371 16.1941 73.0371 16.5226C73.0371 17.4183 73.2385 18.1048 73.6424 18.5819C74.0454 19.0601 74.7239 19.2986 75.6792 19.2986C76.62 19.2986 77.5078 18.933 78.3439 18.2015C78.1041 17.9923 77.9298 17.7131 77.8173 17.362C77.7059 17.011 77.6496 16.6115 77.6496 16.1637C77.6496 15.5964 77.7059 14.9516 77.8173 14.227C77.9298 13.5034 78.0671 12.7653 78.2314 12.0113C78.3957 11.2574 78.5599 10.5372 78.7242 9.85074C78.8886 9.16439 79.027 8.56678 79.1384 8.05941C79.2497 7.55177 79.306 7.1861 79.306 6.96213C79.306 6.39506 79.1834 5.97753 78.9369 5.70858Z" fill="black" fill-opacity="0.2"/>
</svg>
