<svg width="34" height="24" viewBox="0 0 34 24" fill="none" xmlns="http://www.w3.org/2000/svg">
    <rect x="0.5" y="0.5" width="33" height="23" rx="3.5" fill="white"/>
    <rect x="0.5" y="0.5" width="33" height="23" rx="3.5" stroke="#F2F4F7"/>
    <path d="M19.2576 11.7058C19.2576 15.4092 16.2898 18.4115 12.6288 18.4115C8.96782 18.4115 6 15.4092 6 11.7058C6 8.00227 8.96782 5 12.6288 5C16.2898 5 19.2576 8.00227 19.2576 11.7058Z" fill="#ED0006"/>
    <path d="M27.8553 11.7058C27.8553 15.4092 24.8875 18.4115 21.2265 18.4115C17.5655 18.4115 14.5977 15.4092 14.5977 11.7058C14.5977 8.00227 17.5655 5 21.2265 5C24.8875 5 27.8553 8.00227 27.8553 11.7058Z" fill="#0099DF"/>
    <path fill-rule="evenodd" clip-rule="evenodd" d="M16.9267 6.60193C18.3519 7.83189 19.2557 9.66205 19.2557 11.7057C19.2557 13.7494 18.3519 15.5796 16.9267 16.8096C15.5014 15.5796 14.5977 13.7494 14.5977 11.7057C14.5977 9.66205 15.5014 7.83189 16.9267 6.60193Z" fill="#6C6BBD"/>
</svg>
