<svg width="23" height="22" viewBox="0 0 23 22" fill="none" xmlns="http://www.w3.org/2000/svg">
<path id="Men&#195;&#188;" d="M9.8848 5.05698L2.39129 7.71115C1.30848 8.09468 0.738107 9.29335 1.11732 10.3885L4.30872 19.6046C4.68794 20.6997 5.87314 21.2766 6.95595 20.8931L14.4495 18.2389C15.5323 17.8554 16.194 16.7791 15.8147 15.6839M12.6386 1.03879L20.4773 2.31616C21.61 2.50074 22.3802 3.57902 22.1977 4.72457L20.6618 14.3652C20.4793 15.5108 19.4131 16.2898 18.2804 16.1052L10.4418 14.8279C9.30909 14.6433 8.53882 13.565 8.72132 12.4194L10.2572 2.77878C10.4398 1.63323 11.5059 0.854206 12.6386 1.03879Z" stroke="white" stroke-opacity="0.9"/>
</svg>
