<svg width="17" height="16" viewBox="0 0 17 16" fill="none" xmlns="http://www.w3.org/2000/svg">
<path id="Men&#195;&#188;" d="M7.2909 3.35024L2.04544 5.20816C1.28747 5.47663 0.888208 6.3157 1.15366 7.08227L3.38764 13.5336C3.65309 14.3002 4.48273 14.704 5.2407 14.4355L10.4862 12.5776C11.2441 12.3091 11.7073 11.5557 11.4419 10.7891M9.21856 0.537501L14.7056 1.43166C15.4985 1.56087 16.0377 2.31567 15.9099 3.11755L14.8348 9.86602C14.707 10.6679 13.9607 11.2132 13.1678 11.084L7.68077 10.1899C6.8879 10.0606 6.34871 9.30585 6.47646 8.50396L7.55161 1.7555C7.67936 0.953611 8.42568 0.408296 9.21856 0.537501Z" stroke="black" stroke-opacity="0.9"/>
</svg>
