<svg width="24" height="25" viewBox="0 0 24 25" fill="none" xmlns="http://www.w3.org/2000/svg">
    <path d="M12 20.8818H21M3 20.8818H4.67454C5.16372 20.8818 5.40832 20.8818 5.63849 20.8266C5.84256 20.7776 6.03765 20.6968 6.2166 20.5871C6.41843 20.4634 6.59138 20.2905 6.93729 19.9446L19.5 7.38182C20.3285 6.55339 20.3285 5.21024 19.5 4.38182C18.6716 3.55339 17.3285 3.55339 16.5 4.38182L3.93726 16.9446C3.59136 17.2905 3.4184 17.4634 3.29472 17.6652C3.18506 17.8442 3.10425 18.0393 3.05526 18.2434C3 18.4735 3 18.7181 3 19.2073V20.8818Z" stroke="#101828" stroke-width="1.3" stroke-linecap="round" stroke-linejoin="round"/>
    <path d="M12 20.8818H21M3 20.8818H4.67454C5.16372 20.8818 5.40832 20.8818 5.63849 20.8266C5.84256 20.7776 6.03765 20.6968 6.2166 20.5871C6.41843 20.4634 6.59138 20.2905 6.93729 19.9446L19.5 7.38182C20.3285 6.55339 20.3285 5.21024 19.5 4.38182C18.6716 3.55339 17.3285 3.55339 16.5 4.38182L3.93726 16.9446C3.59136 17.2905 3.4184 17.4634 3.29472 17.6652C3.18506 17.8442 3.10425 18.0393 3.05526 18.2434C3 18.4735 3 18.7181 3 19.2073V20.8818Z" stroke="black" stroke-opacity="0.2" stroke-width="1.3" stroke-linecap="round" stroke-linejoin="round"/>
    <path d="M12 20.8818H21M3 20.8818H4.67454C5.16372 20.8818 5.40832 20.8818 5.63849 20.8266C5.84256 20.7776 6.03765 20.6968 6.2166 20.5871C6.41843 20.4634 6.59138 20.2905 6.93729 19.9446L19.5 7.38182C20.3285 6.55339 20.3285 5.21024 19.5 4.38182C18.6716 3.55339 17.3285 3.55339 16.5 4.38182L3.93726 16.9446C3.59136 17.2905 3.4184 17.4634 3.29472 17.6652C3.18506 17.8442 3.10425 18.0393 3.05526 18.2434C3 18.4735 3 18.7181 3 19.2073V20.8818Z" stroke="black" stroke-opacity="0.2" stroke-width="1.3" stroke-linecap="round" stroke-linejoin="round"/>
    <path d="M12 20.8818H21M3 20.8818H4.67454C5.16372 20.8818 5.40832 20.8818 5.63849 20.8266C5.84256 20.7776 6.03765 20.6968 6.2166 20.5871C6.41843 20.4634 6.59138 20.2905 6.93729 19.9446L19.5 7.38182C20.3285 6.55339 20.3285 5.21024 19.5 4.38182C18.6716 3.55339 17.3285 3.55339 16.5 4.38182L3.93726 16.9446C3.59136 17.2905 3.4184 17.4634 3.29472 17.6652C3.18506 17.8442 3.10425 18.0393 3.05526 18.2434C3 18.4735 3 18.7181 3 19.2073V20.8818Z" stroke="black" stroke-opacity="0.2" stroke-width="1.3" stroke-linecap="round" stroke-linejoin="round"/>
</svg>
