<svg width="17" height="17" viewBox="0 0 17 17" fill="none" xmlns="http://www.w3.org/2000/svg">
<g id="Favicon">
<path id="Icon" d="M2.25 5.85187L10.25 5.85187M10.25 5.85187C10.25 6.95644 11.1454 7.85187 12.25 7.85187C13.3546 7.85187 14.25 6.95644 14.25 5.85187C14.25 4.7473 13.3546 3.85187 12.25 3.85187C11.1454 3.85187 10.25 4.7473 10.25 5.85187ZM6.25 11.1852L14.25 11.1852M6.25 11.1852C6.25 12.2898 5.35457 13.1852 4.25 13.1852C3.14543 13.1852 2.25 12.2898 2.25 11.1852C2.25 10.0806 3.14543 9.1852 4.25 9.1852C5.35457 9.1852 6.25 10.0806 6.25 11.1852Z" stroke="black" stroke-opacity="0.9" stroke-linecap="round" stroke-linejoin="round"/>
</g>
</svg>
