<svg width="17" height="16" viewBox="0 0 17 16" fill="none" xmlns="http://www.w3.org/2000/svg">
<g id="Favicon">
<g id="Icon">
<path d="M12.1666 7.33325C13.2712 7.33325 14.1666 6.43782 14.1666 5.33325C14.1666 4.22868 13.2712 3.33325 12.1666 3.33325C11.0621 3.33325 10.1666 4.22868 10.1666 5.33325C10.1666 6.43782 11.0621 7.33325 12.1666 7.33325Z" fill="white" fill-opacity="0.9"/>
<path d="M4.16663 12.6666C5.2712 12.6666 6.16663 11.7712 6.16663 10.6666C6.16663 9.56202 5.2712 8.66659 4.16663 8.66659C3.06206 8.66659 2.16663 9.56202 2.16663 10.6666C2.16663 11.7712 3.06206 12.6666 4.16663 12.6666Z" fill="white" fill-opacity="0.9"/>
<path d="M2.16663 5.33325L10.1666 5.33325M10.1666 5.33325C10.1666 6.43782 11.0621 7.33325 12.1666 7.33325C13.2712 7.33325 14.1666 6.43782 14.1666 5.33325C14.1666 4.22868 13.2712 3.33325 12.1666 3.33325C11.0621 3.33325 10.1666 4.22868 10.1666 5.33325ZM6.16663 10.6666L14.1666 10.6666M6.16663 10.6666C6.16663 11.7712 5.2712 12.6666 4.16663 12.6666C3.06206 12.6666 2.16663 11.7712 2.16663 10.6666C2.16663 9.56202 3.06206 8.66659 4.16663 8.66659C5.2712 8.66659 6.16663 9.56202 6.16663 10.6666Z" stroke="white" stroke-opacity="0.9" stroke-linecap="round" stroke-linejoin="round"/>
</g>
</g>
</svg>
