<svg width="25" height="25" viewBox="0 0 25 25" fill="none" xmlns="http://www.w3.org/2000/svg">
<g id="translate-01">
<path id="Icon" d="M13.038 17.5186H20.212M13.038 17.5186L11.125 21.5186M13.038 17.5186L15.9033 11.5276C16.1342 11.0448 16.2496 10.8035 16.4076 10.7272C16.5449 10.6608 16.7051 10.6608 16.8424 10.7272C17.0004 10.8035 17.1158 11.0448 17.3467 11.5276L20.212 17.5186M20.212 17.5186L22.125 21.5186M2.125 5.51855H8.125M8.125 5.51855H11.625M8.125 5.51855V3.51855M11.625 5.51855H14.125M11.625 5.51855C11.1289 8.47584 9.97759 11.1547 8.29055 13.403M10.125 14.5186C9.51247 14.2434 8.88765 13.8606 8.29055 13.403M8.29055 13.403C6.93802 12.3663 5.72776 10.9452 5.125 9.51855M8.29055 13.403C6.68586 15.5415 4.59643 17.2904 2.125 18.5186" stroke="black" stroke-opacity="0.7" stroke-width="2" stroke-linecap="round" stroke-linejoin="round"/>
</g>
</svg>
