<svg width="34" height="24" viewBox="0 0 34 24" fill="none" xmlns="http://www.w3.org/2000/svg">
    <rect x="0.5" y="0.5" width="33" height="23" rx="3.5" fill="white"/>
    <rect x="0.5" y="0.5" width="33" height="23" rx="3.5" stroke="#F2F4F7"/>
    <path fill-rule="evenodd" clip-rule="evenodd" d="M10.751 15.8582H8.69129L7.14674 9.79235C7.07343 9.51332 6.91776 9.26664 6.68879 9.15038C6.11737 8.85821 5.4877 8.62568 4.80078 8.50841V8.27487H8.11886C8.57681 8.27487 8.92026 8.62568 8.97751 9.0331L9.77891 13.4086L11.8376 8.27487H13.8401L10.751 15.8582ZM14.985 15.8582H13.0398L14.6415 8.27487H16.5868L14.985 15.8582ZM19.1035 10.3757C19.1607 9.96725 19.5042 9.73372 19.9049 9.73372C20.5346 9.67508 21.2205 9.79235 21.7929 10.0835L22.1364 8.45079C21.5639 8.21725 20.9343 8.09998 20.3628 8.09998C18.4748 8.09998 17.101 9.15038 17.101 10.6082C17.101 11.7173 18.0741 12.2996 18.761 12.6504C19.5042 13.0002 19.7904 13.2337 19.7332 13.5835C19.7332 14.1082 19.1607 14.3418 18.5893 14.3418C17.9024 14.3418 17.2155 14.1669 16.5868 13.8747L16.2433 15.5084C16.9303 15.7996 17.6734 15.9169 18.3603 15.9169C20.4773 15.9745 21.7929 14.9251 21.7929 13.35C21.7929 11.3664 19.1035 11.2502 19.1035 10.3757ZM28.6008 15.8582L27.0562 8.27487H25.3972C25.0537 8.27487 24.7103 8.50841 24.5958 8.85821L21.7356 15.8582H23.7381L24.1378 14.7502H26.5983L26.8273 15.8582H28.6008ZM25.6834 10.3171L26.2548 13.1751H24.653L25.6834 10.3171Z" fill="#172B85"/>
</svg>
