<svg width="20" height="27" viewBox="0 0 20 27" fill="none" xmlns="http://www.w3.org/2000/svg">
<path id="Union" fill-rule="evenodd" clip-rule="evenodd" d="M0.511056 9.01352C0.499399 7.41201 0.476435 4.25726 0.572799 0.500488H12.6857C12.7312 2.27725 12.7501 3.91934 12.7561 5.32615C10.589 6.34988 9.08958 8.55549 9.08958 11.1113C9.08958 12.4751 9.51654 13.7392 10.2441 14.7773C9.4642 15.35 8.54347 15.7421 7.5435 15.892V25.5167H10.9165V26.5005H2.20296V25.5167H5.71647V15.8923C2.77301 15.4516 0.51572 12.9126 0.51572 9.84643C0.51572 9.65423 0.513673 9.373 0.511056 9.01352ZM15.5524 9.84643L12.9524 7.24643L11.7598 8.43896L14.3599 11.039L11.7598 13.639L12.9524 14.8315L15.5524 12.2315L18.1524 14.8315L19.3449 13.639L16.7449 11.039L19.3449 8.43896L18.1524 7.24643L15.5524 9.84643Z" fill="black" fill-opacity="0.7"/>
</svg>
