<svg width="25" height="23" viewBox="0 0 25 23" fill="none" xmlns="http://www.w3.org/2000/svg">
<path d="M13.8913 5.76517C13.196 8.22712 9.77537 9.41618 9.77537 9.41618C9.77537 9.41618 7.48188 6.6136 8.17712 4.15149C8.87237 1.68955 12.293 0.500488 12.293 0.500488C12.293 0.500488 14.5865 3.30323 13.8913 5.76517Z" fill="white" fill-opacity="0.9"/>
<path d="M7.67973 8.45697C8.92906 10.6894 7.35111 13.9489 7.35111 13.9489C7.35111 13.9489 3.7477 13.5888 2.49838 11.3564C1.24905 9.12379 2.82699 5.86426 2.82699 5.86426C2.82699 5.86426 6.43057 6.22439 7.67973 8.45697Z" fill="white" fill-opacity="0.9"/>
<path d="M5.33393 21.0921C5.33393 21.0921 6.91188 17.8325 5.66255 15.6001C4.41338 13.3675 0.809973 13.0076 0.809973 13.0076C0.809973 13.0076 -0.768133 16.2671 0.481194 18.4995C1.73052 20.7321 5.33393 21.0921 5.33393 21.0921Z" fill="white" fill-opacity="0.9"/>
<path d="M12.0632 9.69476C9.8306 10.9439 9.47063 14.5475 9.47063 14.5475C9.47063 14.5475 11.4457 15.5036 13.3739 15.3381C13.9134 13.0457 15.4697 11.1457 17.5408 10.14C17.5509 10.0646 17.5551 10.0234 17.5551 10.0234C17.5551 10.0234 14.2956 8.44544 12.0632 9.69476Z" fill="white" fill-opacity="0.9"/>
<path d="M13.1965 16.451C13.1777 16.6719 13.1679 16.8956 13.1679 17.1214C13.1679 18.5015 13.5284 19.7974 14.1603 20.9202C13.8348 21.358 13.4351 21.7452 12.9454 22.0193C10.713 23.2686 7.45345 21.6906 7.45345 21.6906C7.45345 21.6906 7.81342 18.0872 10.046 16.8379C11.0193 16.2932 12.1879 16.2859 13.1965 16.451Z" fill="white" fill-opacity="0.9"/>
<path d="M18.3704 13.639L17.2754 14.734L19.6627 17.1214L17.2754 19.5087L18.3704 20.6038L20.7577 18.2164L23.1451 20.6038L24.2401 19.5087L21.8527 17.1214L24.2401 14.734L23.1451 13.639L20.7577 16.0264L18.3704 13.639Z" fill="white" fill-opacity="0.9"/>
</svg>
