<svg width="28" height="33" viewBox="0 0 28 33" fill="none" xmlns="http://www.w3.org/2000/svg">
<g id="Union">
<path fill-rule="evenodd" clip-rule="evenodd" d="M15.8568 6.58622C16.9336 6.13874 17.6908 5.07682 17.6908 3.83804C17.6908 2.19513 16.359 0.863281 14.7161 0.863281C13.0731 0.863281 11.7413 2.19513 11.7413 3.83804C11.7413 4.99094 12.3972 5.99066 13.3561 6.48445V10.5084L7.0344 11.7661V16.3969L0.5 18.715L0.701635 27.3074L5.85967 28.8879C5.85138 28.9785 5.84714 29.0701 5.84714 29.1628C5.84714 30.8057 7.17898 32.1376 8.8219 32.1376C10.4648 32.1376 11.7967 30.8057 11.7967 29.1628C11.7967 28.3708 11.4871 27.651 10.9824 27.1179L13.7697 22.7692L9.53509 16.971V13.8183L15.8568 12.5606V6.58622ZM14.7161 5.14567C15.4382 5.14567 16.0237 4.56023 16.0237 3.83804C16.0237 3.11585 15.4382 2.53041 14.7161 2.53041C13.9939 2.53041 13.4084 3.11585 13.4084 3.83804C13.4084 4.56023 13.9939 5.14567 14.7161 5.14567ZM8.60303 26.196C8.08154 26.2339 7.59735 26.4063 7.18495 26.6786L3.15931 25.4451L3.04248 20.4664L7.76718 18.7903L10.7404 22.8613L8.60303 26.196ZM8.8219 30.4705C9.54408 30.4705 10.1295 29.885 10.1295 29.1628C10.1295 28.4406 9.54408 27.8552 8.8219 27.8552C8.09971 27.8552 7.51427 28.4406 7.51427 29.1628C7.51427 29.885 8.09971 30.4705 8.8219 30.4705Z" fill="black" fill-opacity="0.7"/>
<path d="M19.6408 19.0033L20.812 17.8321L23.3654 20.3856L25.9188 17.8321L27.09 19.0033L24.5366 21.5567L27.09 24.1102L25.9188 25.2813L23.3654 22.7279L20.812 25.2813L19.6408 24.1102L22.1942 21.5567L19.6408 19.0033Z" fill="black" fill-opacity="0.7"/>
</g>
</svg>
