<svg width="28" height="27" viewBox="0 0 28 27" fill="none" xmlns="http://www.w3.org/2000/svg">
<path d="M5.23769 0.500488H15.8361V1.9305H5.23769V0.500488Z" fill="white" fill-opacity="0.9"/>
<path d="M5.23769 2.67243L1.08727 7.86122H12.3781L15.6434 2.67315L5.23769 2.67243Z" fill="white" fill-opacity="0.9"/>
<path d="M0.5 26.5005V8.60388H12.0884V26.5005H0.5Z" fill="white" fill-opacity="0.9"/>
<path d="M19.8302 13.716C17.4488 14.9409 15.8198 17.4228 15.8198 20.2851C15.8198 22.8944 17.1735 25.1875 19.2169 26.5005H12.831V8.61022L12.835 8.60388H19.8302V13.716Z" fill="white" fill-opacity="0.9"/>
<path d="M16.1938 3.20295L19.3353 7.86122H13.2968L16.1938 3.20295Z" fill="white" fill-opacity="0.9"/>
<path d="M20.5375 16.3981L19.3153 17.6204L21.9801 20.2851L19.3153 22.9498L20.5375 24.1721L23.2023 21.5073L25.867 24.1721L27.0893 22.9498L24.4245 20.2851L27.0893 17.6204L25.867 16.3981L23.2023 19.0629L20.5375 16.3981Z" fill="white" fill-opacity="0.9"/>
</svg>
