<svg width="28" height="13" viewBox="0 0 28 13" fill="none" xmlns="http://www.w3.org/2000/svg">
<g id="Subtract">
<path d="M11.7114 6.0849C11.7369 5.87416 11.7855 5.68494 11.8574 5.51723C11.976 5.25015 12.1431 5.04606 12.3582 4.9052C12.581 4.75679 12.8481 4.68248 13.1597 4.68248C13.4417 4.68248 13.6755 4.74548 13.8609 4.8717C13.9845 4.94779 14.0885 5.04673 14.1726 5.16873C14.2196 5.23684 14.2605 5.31226 14.2951 5.39478C14.3816 5.58622 14.4319 5.81626 14.4464 6.0849H11.7114Z" fill="black" fill-opacity="0.7"/>
<path fill-rule="evenodd" clip-rule="evenodd" d="M3.22587 0.0126953C1.72052 0.0126953 0.5 1.23321 0.5 2.73857V10.2624C0.5 11.7678 1.72052 12.9883 3.22587 12.9883H25.0541C26.5595 12.9883 27.78 11.7678 27.78 10.2624V2.73857C27.78 1.23321 26.5595 0.0126953 25.0541 0.0126953H3.22587ZM4.34457 9.20164C4.46325 9.32032 4.63406 9.37955 4.85656 9.37955C5.32418 9.37955 5.55777 9.14219 5.55777 8.66724V6.22976C5.55777 5.80672 5.67667 5.46909 5.91403 5.21687C6.15893 4.95711 6.48547 4.82711 6.89364 4.82711C7.2275 4.82711 7.4724 4.92361 7.62812 5.1166C7.79139 5.3096 7.87303 5.6175 7.87303 6.04053V8.66724C7.87303 8.89728 7.93248 9.07542 8.05116 9.20164C8.17738 9.32032 8.35174 9.37955 8.57424 9.37955C8.79696 9.37955 8.96755 9.32032 9.08623 9.20164C9.20491 9.07542 9.26436 8.89728 9.26436 8.66724V5.97376C9.26436 5.46909 9.19381 5.0536 9.05295 4.72707C8.91187 4.39321 8.70046 4.14454 8.41851 3.98127C8.13656 3.818 7.77653 3.73637 7.33886 3.73637C6.90096 3.73637 6.50765 3.84018 6.15893 4.04804C5.89362 4.20377 5.68222 4.41761 5.52449 4.6898V4.45998C5.52449 4.22994 5.46504 4.05558 5.34636 3.93668C5.22768 3.818 5.06064 3.75877 4.84547 3.75877C4.63029 3.75877 4.46325 3.818 4.34457 3.93668C4.22589 4.05558 4.16644 4.22994 4.16644 4.45998V8.66724C4.16644 8.78459 4.18197 8.88819 4.2128 8.97848C4.24253 9.06543 4.28645 9.13975 4.34457 9.20164ZM11.7684 9.05678C12.2136 9.28682 12.744 9.40195 13.36 9.40195C13.6493 9.40195 13.961 9.36491 14.2951 9.29059C14.6362 9.20896 14.9368 9.08651 15.1966 8.92324C15.3301 8.84161 15.4229 8.74511 15.4748 8.63397C15.5342 8.52261 15.5564 8.41502 15.5415 8.3112C15.5267 8.19985 15.4823 8.10712 15.408 8.03281C15.3412 7.95871 15.2485 7.9179 15.1298 7.91035C15.0111 7.89549 14.8738 7.93276 14.7179 8.02171C14.5027 8.14039 14.2727 8.2258 14.0278 8.27771C13.7904 8.3223 13.5752 8.34448 13.3822 8.34448C12.8256 8.34448 12.4028 8.19607 12.1133 7.89926C11.8893 7.65769 11.7544 7.32006 11.7083 6.88638H15.0741C15.2447 6.88638 15.3747 6.85288 15.4637 6.78611C15.5602 6.71202 15.6083 6.6082 15.6083 6.47444C15.6083 6.05163 15.5491 5.67318 15.4304 5.33932C15.319 4.99792 15.152 4.70843 14.9295 4.47107C14.7143 4.23349 14.4508 4.05181 14.1391 3.92559C13.835 3.79959 13.4898 3.73637 13.104 3.73637C12.5772 3.73637 12.106 3.85882 11.6903 4.10372C11.2824 4.34108 10.9596 4.67139 10.722 5.09442C10.492 5.51723 10.3771 6.01081 10.3771 6.5747C10.3771 6.90013 10.4146 7.20116 10.4898 7.47734C10.5481 7.69229 10.6293 7.89239 10.7331 8.07739C10.978 8.50043 11.3232 8.82674 11.7684 9.05678ZM18.2483 9.246C18.3819 9.33518 18.5414 9.37955 18.727 9.37955C18.9198 9.37955 19.0831 9.33141 19.2166 9.23491C19.3504 9.13842 19.4542 8.99001 19.5283 8.7897L20.639 5.7872L21.7768 8.80079C21.8509 8.99378 21.9549 9.13842 22.0885 9.23491C22.2293 9.33141 22.3926 9.37955 22.5783 9.37955C22.7637 9.37955 22.9232 9.33141 23.0568 9.23491C23.1362 9.18056 23.2049 9.11091 23.2631 9.02617C23.3083 8.96029 23.3471 8.88508 23.3795 8.80079L24.9825 4.68248C25.0351 4.55382 25.0623 4.43447 25.0643 4.32444C25.0648 4.29472 25.0634 4.26566 25.0603 4.23726C25.0455 4.0964 24.9898 3.98127 24.8933 3.89231C24.7968 3.80314 24.6597 3.75877 24.4816 3.75877C24.3405 3.75877 24.2107 3.79582 24.092 3.86991C23.9807 3.94422 23.888 4.08154 23.8136 4.28185L22.5729 7.69895L21.3205 4.22617C21.2686 4.07022 21.1905 3.95531 21.0867 3.881C21.0214 3.82998 20.9447 3.79493 20.8562 3.77585C20.8036 3.76454 20.7468 3.75877 20.686 3.75877C20.5228 3.75877 20.3892 3.79582 20.2852 3.86991C20.2324 3.91073 20.1851 3.96463 20.1434 4.03185C20.1091 4.08753 20.0784 4.1523 20.0516 4.22617L18.7889 7.671L17.5693 4.31512C17.4952 4.09995 17.406 3.95531 17.3022 3.881C17.2332 3.82687 17.1511 3.79071 17.056 3.77252C17.0078 3.76343 16.9564 3.75877 16.9016 3.75877C16.7161 3.75877 16.5677 3.79959 16.4564 3.881C16.3989 3.92315 16.3523 3.97306 16.3166 4.03118C16.2831 4.08553 16.2592 4.14675 16.2447 4.21508C16.2226 4.34862 16.2447 4.50435 16.3117 4.68248L17.9256 8.80079C18.0072 9.0011 18.1148 9.14951 18.2483 9.246Z" fill="black" fill-opacity="0.7"/>
</g>
</svg>
