<svg width="24" height="27" viewBox="0 0 24 27" fill="none" xmlns="http://www.w3.org/2000/svg">
<g id="Vector">
<path d="M10.7801 0.500488H7.49325V2.92337C3.90804 3.57441 1.05167 6.31712 0.234175 9.84147H18.0392C17.2217 6.31712 14.3654 3.57441 10.7801 2.92337V0.500488Z" fill="black" fill-opacity="0.7"/>
<path d="M9.1367 26.5005C4.15417 26.5005 0.102948 17.6096 0 12.5261H18.2734C18.2659 12.895 18.2377 13.2839 18.1898 13.6881C15.123 14.4152 12.8416 17.1713 12.8416 20.4604C12.8416 21.7234 13.178 22.9079 13.7661 23.929C12.4085 25.4783 10.8261 26.5005 9.1367 26.5005Z" fill="black" fill-opacity="0.7"/>
<path d="M17.3944 16.949L16.2903 18.0531L18.6975 20.4603L16.2903 22.8675L17.3944 23.9716L19.8016 21.5644L22.2088 23.9716L23.3129 22.8675L20.9057 20.4603L23.3129 18.0531L22.2088 16.949L19.8016 19.3562L17.3944 16.949Z" fill="black" fill-opacity="0.7"/>
</g>
</svg>
