<svg width="19" height="17" viewBox="0 0 19 17" fill="none" xmlns="http://www.w3.org/2000/svg">
<path d="M6.16836 15.9567C6.02407 16.2165 5.84371 16.3824 5.62727 16.4545C5.42527 16.5411 5.21605 16.5555 4.99962 16.4978C4.79761 16.4545 4.62446 16.3535 4.48017 16.1948C4.33589 16.0505 4.24931 15.8702 4.22045 15.6537C4.1916 15.4229 4.24931 15.1776 4.3936 14.9179L12.38 1.06611C12.5243 0.806386 12.6974 0.633239 12.8994 0.546666C13.1159 0.460093 13.3251 0.445664 13.5271 0.503379C13.7291 0.546666 13.9022 0.647668 14.0465 0.806387C14.1908 0.965105 14.2774 1.15989 14.3063 1.39076C14.3495 1.60719 14.299 1.83805 14.1548 2.08334L6.16836 15.9567ZM3.85252 9.98317C2.64049 9.98317 1.6954 9.56473 1.01724 8.72786C0.339079 7.89098 0 6.7511 0 5.30821C0 4.34147 0.151503 3.51181 0.45451 2.81922C0.757517 2.12663 1.1976 1.59276 1.77476 1.21761C2.35191 0.842459 3.0445 0.654883 3.85252 0.654883C5.06455 0.654883 6.00964 1.07332 6.6878 1.9102C7.36596 2.73265 7.70503 3.86531 7.70503 5.30821C7.70503 6.27494 7.55353 7.11182 7.25052 7.81883C6.94752 8.51142 6.50744 9.04529 5.93028 9.42044C5.35312 9.79559 4.66054 9.98317 3.85252 9.98317ZM3.85252 8.16513C4.19881 8.16513 4.4946 8.06412 4.73989 7.86212C4.98519 7.64569 5.17276 7.32825 5.30262 6.90981C5.43248 6.49138 5.49741 5.95751 5.49741 5.30821C5.49741 4.34147 5.35312 3.62724 5.06455 3.16551C4.77597 2.70379 4.37196 2.47292 3.85252 2.47292C3.50622 2.47292 3.21043 2.57393 2.96514 2.77593C2.71985 2.97794 2.53227 3.28816 2.40241 3.7066C2.27255 4.12503 2.20762 4.6589 2.20762 5.30821C2.20762 6.28937 2.35191 7.01082 2.64049 7.47254C2.92907 7.93427 3.33308 8.16513 3.85252 8.16513ZM14.7175 16.3463C13.5055 16.3463 12.5604 15.9279 11.8822 15.091C11.204 14.2541 10.865 13.1142 10.865 11.6714C10.865 10.7046 11.0165 9.87495 11.3195 9.18237C11.6225 8.48978 12.0626 7.95591 12.6397 7.58076C13.2169 7.20561 13.9095 7.01803 14.7175 7.01803C15.9295 7.01803 16.8746 7.43647 17.5528 8.27334C18.2309 9.09579 18.57 10.2285 18.57 11.6714C18.57 12.6381 18.4185 13.475 18.1155 14.182C17.8125 14.8746 17.3724 15.4084 16.7952 15.7836C16.2181 16.1587 15.5255 16.3463 14.7175 16.3463ZM14.7175 14.5283C15.0638 14.5283 15.3596 14.4273 15.6049 14.2253C15.8502 14.0233 16.0377 13.713 16.1676 13.2946C16.2974 12.8617 16.3624 12.3207 16.3624 11.6714C16.3624 10.7046 16.2181 9.99038 15.9295 9.52866C15.6409 9.06693 15.2369 8.83607 14.7175 8.83607C14.3712 8.83607 14.0754 8.93707 13.8301 9.13908C13.5848 9.34108 13.3972 9.65131 13.2674 10.0697C13.1375 10.4882 13.0726 11.0221 13.0726 11.6714C13.0726 12.6525 13.2169 13.374 13.5055 13.8357C13.794 14.2974 14.198 14.5283 14.7175 14.5283Z" fill="white" fill-opacity="0.9"/>
</svg>
