<svg width="28" height="27" viewBox="0 0 28 27" fill="none" xmlns="http://www.w3.org/2000/svg">
<path d="M14.5551 4.20714C14.4245 3.80498 13.8556 3.80498 13.725 4.20714L11.6479 10.5996C11.5895 10.7795 11.4219 10.9012 11.2327 10.9012H4.51112C4.08849 10.9012 3.91266 11.4423 4.25473 11.6909L9.69243 15.6416C9.84545 15.7528 9.90939 15.9498 9.851 16.1296L7.77408 22.5221C7.64322 22.9243 8.10357 23.2587 8.44564 23.0102L13.8836 19.0593C14.0366 18.9482 14.2435 18.9482 14.3965 19.0593L19.8345 23.0102C20.1765 23.2587 20.6369 22.9243 20.506 22.5221L18.4291 16.1296C18.3707 15.9498 18.4346 15.7528 18.5877 15.6416L24.0254 11.6909C24.3674 11.4423 24.1916 10.9012 23.769 10.9012H17.0474C16.8582 10.9012 16.6906 10.7795 16.6322 10.5996L14.5551 4.20714Z" fill="white" fill-opacity="0.9"/>
</svg>
