<svg width="21" height="21" viewBox="0 0 21 21" fill="none" xmlns="http://www.w3.org/2000/svg">
<path id="Union" d="M10.5551 1.20714C10.4245 0.804975 9.85563 0.804975 9.72499 1.20714L7.64786 7.59965C7.58946 7.77953 7.42195 7.90122 7.23269 7.90122H0.511121C0.0884925 7.90122 -0.0873366 8.44235 0.254731 8.69085L5.69243 12.6416C5.84545 12.7528 5.90939 12.9498 5.851 13.1296L3.77408 19.5221C3.64322 19.9243 4.10357 20.2587 4.44564 20.0102L9.88355 16.0593C10.0366 15.9482 10.2435 15.9482 10.3965 16.0593L15.8345 20.0102C16.1765 20.2587 16.6369 19.9243 16.506 19.5221L14.4291 13.1296C14.3707 12.9498 14.4346 12.7528 14.5877 12.6416L20.0254 8.69085C20.3674 8.44235 20.1916 7.90122 19.769 7.90122H13.0474C12.8582 7.90122 12.6906 7.77953 12.6322 7.59965L10.5551 1.20714Z" fill="black" fill-opacity="0.7"/>
</svg>
