<svg width="19" height="27" viewBox="0 0 19 27" fill="none" xmlns="http://www.w3.org/2000/svg">
<path d="M10.9 26.3824C14.9199 25.4826 18.0586 22.0954 18.5165 17.9181C18.7527 15.7624 18.2293 11.5361 15.818 8.82582C16.4252 11.7403 15.4173 14.5678 14.9015 14.6715C14.8802 14.4939 14.8646 14.3131 14.8486 14.1257C14.7468 12.9399 14.623 11.4948 12.8608 8.984C9.61416 5.18893 8.55411 2.48896 9.67067 0.500488C8.98996 0.500488 5.4197 2.92157 5.57444 6.31785C5.72897 9.71413 4.62699 11.7212 3.82435 12.3406C4.07164 9.96385 2.35132 8.58096 1.51486 7.90875L1.43182 7.84191C1.95416 9.17377 1.43182 10.8882 0.893084 12.6563C0.494296 13.9645 0.0865968 15.302 0.0865968 16.5359C-0.599788 22.4288 2.88844 25.8439 7.20787 26.5005C6.98326 26.3067 5.49545 24.972 5.07762 23.277C4.42223 20.6179 5.27327 19.1791 5.27327 19.1791C5.56654 20.6402 6.22214 21.0874 6.57758 21.3298C6.63774 21.3709 6.68938 21.4062 6.72908 21.4394C6.23064 17.5096 7.02539 15.4011 9.64839 13.5398C9.33487 16.1553 10.2797 17.1813 10.9879 17.9503C11.1854 18.1646 11.3645 18.3591 11.4927 18.5624C14.3267 22.5815 11.5085 25.7702 10.9 26.3824Z" fill="white" fill-opacity="0.9"/>
</svg>
