<svg width="29" height="27" viewBox="0 0 29 27" fill="none" xmlns="http://www.w3.org/2000/svg">
<path d="M17.5979 0.500488L24.9024 0.908708L28.6863 7.47392L21.4344 6.98713L17.5979 0.500488Z" fill="white" fill-opacity="0.9"/>
<path d="M16.8417 0.579176L12.8642 7.0002L16.7805 13.5826L20.7462 7.18072L16.8417 0.579176Z" fill="white" fill-opacity="0.9"/>
<path d="M24.8202 14.3442L28.6453 8.15692L21.2778 7.62831L17.5933 13.5882C18.2146 13.403 18.8729 13.3035 19.5545 13.3035C20.7923 13.3035 21.9534 13.6316 22.9558 14.2055L24.8202 14.3442Z" fill="white" fill-opacity="0.9"/>
<path d="M0.661151 14.903L7.11168 11.4514L13.7587 15.0896L7.3123 18.4467L0.661151 14.903Z" fill="white" fill-opacity="0.9"/>
<path d="M0.0563071 15.3636L0 22.9166L6.76912 26.5005L6.82526 18.9701L0.0563071 15.3636Z" fill="white" fill-opacity="0.9"/>
<path d="M14.0768 16.0363L14.079 15.6942L7.51209 19.0758L7.4645 26.328L13.4438 23.2688C12.9678 22.3354 12.6993 21.2783 12.6993 20.1586C12.6993 18.6113 13.212 17.1836 14.0768 16.0363Z" fill="white" fill-opacity="0.9"/>
<path d="M19.5548 19.4454L16.9536 16.8442L15.7605 18.0373L18.3617 20.6384L15.7605 23.2396L16.9536 24.4327L19.5548 21.8315L22.1559 24.4327L23.349 23.2396L20.7478 20.6384L23.349 18.0373L22.1559 16.8442L19.5548 19.4454Z" fill="white" fill-opacity="0.9"/>
</svg>
