<svg width="30" height="27" viewBox="0 0 30 27" fill="none" xmlns="http://www.w3.org/2000/svg">
<path d="M11.3153 18.8144C13.3544 18.8144 17.1849 17.7207 20.4054 15.6783C20.0236 14.8888 19.8095 14.003 19.8095 13.0672C19.8095 9.75082 22.4979 7.06239 25.8143 7.06239C25.8278 7.06239 25.8413 7.06244 25.8548 7.06253C25.5712 3.3913 22.4963 0.500488 18.7447 0.500488C11.8537 0.783077 7.85632 11.125 7.79819 15.1212L4.30718 18.481C3.90041 18.2696 3.43803 18.1501 2.94769 18.1501C1.31973 18.1501 0 19.4671 0 21.0917C0 22.6327 1.52179 23.5887 3.03333 23.7148C3.25634 25.1189 4.14041 26.5005 5.61013 26.5005C7.2381 26.5005 8.55783 25.1835 8.55783 23.5589C8.55783 22.9558 8.37596 22.3951 8.06398 21.9284L11.2997 18.8144L11.3153 18.8144Z" fill="white" fill-opacity="0.9"/>
<path d="M23.5238 9.72612L22.4733 10.7767L24.7637 13.0672L22.4733 15.3576L23.5238 16.4082L25.8143 14.1177L28.1048 16.4082L29.1553 15.3576L26.8648 13.0672L29.1553 10.7767L28.1048 9.72612L25.8143 12.0166L23.5238 9.72612Z" fill="white" fill-opacity="0.9"/>
</svg>
