<svg width="8" height="10" viewBox="0 0 8 10" fill="none" xmlns="http://www.w3.org/2000/svg">
<path id="Union" fill-rule="evenodd" clip-rule="evenodd" d="M0.00425246 3.27421C-0.00023124 2.65825 -0.00906344 1.4449 0.0279987 0H4.6868C4.70433 0.683403 4.71159 1.31501 4.7139 1.8561C3.88046 2.24988 3.30383 3.09814 3.30383 4.08109C3.30383 4.60559 3.46802 5.09175 3.7478 5.49097C3.44788 5.71124 3.0938 5.86207 2.70923 5.91977V9.62162H4.00626V10H0.654907V9.62162H2.00653V5.91991C0.874337 5.75052 0.00604624 4.77394 0.00604624 3.59456C0.00604624 3.52064 0.0052589 3.41247 0.00425246 3.27421ZM5.78941 3.5946L4.78941 2.5946L4.33075 3.05327L5.33075 4.05327L4.33075 5.05327L4.78941 5.51193L5.78941 4.51193L6.78941 5.51193L7.24808 5.05327L6.24808 4.05327L7.24808 3.05327L6.78941 2.5946L5.78941 3.5946Z" fill="#17C7FF"/>
</svg>
