<svg width="10" height="10" viewBox="0 0 10 10" fill="none" xmlns="http://www.w3.org/2000/svg">
<g id="Union">
<path fill-rule="evenodd" clip-rule="evenodd" d="M5.42538 1.82992C5.76969 1.68684 6.0118 1.34728 6.0118 0.951183C6.0118 0.425859 5.58594 0 5.06062 0C4.5353 0 4.10944 0.425859 4.10944 0.951183C4.10944 1.31982 4.31915 1.63949 4.62578 1.79738V3.08404L2.6044 3.48618V4.96689L0.515015 5.70812L0.579488 8.45556L2.22878 8.96092C2.22612 8.98986 2.22477 9.01918 2.22477 9.04882C2.22477 9.57414 2.65063 10 3.17595 10C3.70128 10 4.12714 9.57414 4.12714 9.04882C4.12714 8.79556 4.02816 8.56541 3.86677 8.39496L4.75802 7.00443L3.404 5.15047V4.14237L5.42538 3.74024V1.82992ZM5.06062 1.3693C5.29154 1.3693 5.47874 1.1821 5.47874 0.951183C5.47874 0.720263 5.29154 0.533066 5.06062 0.533066C4.8297 0.533066 4.6425 0.720263 4.6425 0.951183C4.6425 1.1821 4.8297 1.3693 5.06062 1.3693ZM3.10597 8.10017C2.93922 8.11229 2.7844 8.16741 2.65254 8.25447L1.36533 7.86006L1.32798 6.26814L2.8387 5.73219L3.78939 7.0339L3.10597 8.10017ZM3.17595 9.46693C3.40687 9.46693 3.59407 9.27974 3.59407 9.04882C3.59407 8.8179 3.40687 8.6307 3.17595 8.6307C2.94503 8.6307 2.75784 8.8179 2.75784 9.04882C2.75784 9.27974 2.94503 9.46693 3.17595 9.46693Z" fill="#17C7FF"/>
<path d="M6.63531 5.80029L7.00979 5.42581L7.82626 6.24227L8.64272 5.42581L9.0172 5.80029L8.20074 6.61676L9.0172 7.43322L8.64272 7.80771L7.82626 6.99124L7.00979 7.80771L6.63531 7.43322L7.45177 6.61676L6.63531 5.80029Z" fill="#17C7FF"/>
</g>
</svg>
