<svg width="22" height="10" viewBox="0 0 22 10" fill="none" xmlns="http://www.w3.org/2000/svg">
<g id="Subtract">
<path d="M9.13132 4.67971C9.15098 4.51729 9.18842 4.37146 9.24381 4.24222C9.33527 4.03638 9.46401 3.8791 9.62984 3.77054C9.80148 3.65616 10.0073 3.59889 10.2475 3.59889C10.4648 3.59889 10.645 3.64744 10.7879 3.74472C10.8832 3.80336 10.9633 3.87961 11.0281 3.97364C11.0644 4.02612 11.0958 4.08425 11.1225 4.14785C11.1892 4.29539 11.228 4.47267 11.2391 4.67971H9.13132Z" fill="black" fill-opacity="0.9"/>
<path fill-rule="evenodd" clip-rule="evenodd" d="M2.59173 0C1.43159 0 0.490967 0.940625 0.490967 2.10076V7.89924C0.490967 9.05937 1.43159 10 2.59173 10H19.4143C20.5744 10 21.515 9.05937 21.515 7.89924V2.10076C21.515 0.940625 20.5744 0 19.4143 0H2.59173ZM3.45389 7.0817C3.54535 7.17317 3.67699 7.21881 3.84846 7.21881C4.20885 7.21881 4.38887 7.03588 4.38887 6.66986V4.79134C4.38887 4.46532 4.4805 4.20512 4.66343 4.01074C4.85217 3.81054 5.10383 3.71036 5.41839 3.71036C5.67569 3.71036 5.86443 3.78473 5.98444 3.93346C6.11027 4.0822 6.17319 4.31949 6.17319 4.64551V6.66986C6.17319 6.84714 6.219 6.98443 6.31047 7.0817C6.40774 7.17317 6.54212 7.21881 6.71359 7.21881C6.88524 7.21881 7.01671 7.17317 7.10817 7.0817C7.19963 6.98443 7.24545 6.84714 7.24545 6.66986V4.59405C7.24545 4.20512 7.19108 3.88491 7.08252 3.63326C6.97379 3.37596 6.81087 3.18431 6.59358 3.05849C6.37629 2.93266 6.09882 2.86975 5.76151 2.86975C5.42404 2.86975 5.12092 2.94975 4.85217 3.10994C4.6477 3.22996 4.48478 3.39477 4.36322 3.60453V3.42742C4.36322 3.25013 4.31741 3.11576 4.22594 3.02412C4.13448 2.93266 4.00575 2.88701 3.83991 2.88701C3.67408 2.88701 3.54535 2.93266 3.45389 3.02412C3.36242 3.11576 3.3166 3.25013 3.3166 3.42742V6.66986C3.3166 6.7603 3.32857 6.84013 3.35233 6.90972C3.37524 6.97673 3.40909 7.034 3.45389 7.0817ZM9.17525 6.97006C9.51837 7.14735 9.92714 7.23608 10.4019 7.23608C10.6248 7.23608 10.865 7.20753 11.1225 7.15026C11.3854 7.08734 11.6171 6.99297 11.8173 6.86715C11.9202 6.80423 11.9917 6.72987 12.0317 6.64421C12.0775 6.55839 12.0946 6.47548 12.0831 6.39547C12.0717 6.30964 12.0375 6.23818 11.9802 6.18091C11.9287 6.12381 11.8573 6.09235 11.7658 6.08654C11.6744 6.07509 11.5685 6.10381 11.4483 6.17236C11.2825 6.26383 11.1052 6.32965 10.9165 6.36965C10.7336 6.40401 10.5677 6.42111 10.419 6.42111C9.99005 6.42111 9.6642 6.30674 9.4411 6.07799C9.26843 5.89182 9.16448 5.63161 9.12892 5.29739H11.7229C11.8544 5.29739 11.9546 5.27157 12.0231 5.22011C12.0975 5.16301 12.1346 5.083 12.1346 4.97991C12.1346 4.65406 12.0889 4.3624 11.9975 4.10511C11.9116 3.842 11.7829 3.61889 11.6114 3.43597C11.4456 3.25287 11.2425 3.11285 11.0023 3.01557C10.7679 2.91847 10.5019 2.86975 10.2046 2.86975C9.79858 2.86975 9.43546 2.96412 9.11508 3.15286C8.80068 3.33578 8.55193 3.59034 8.36883 3.91637C8.19155 4.24222 8.10299 4.6226 8.10299 5.05719C8.10299 5.30799 8.13188 5.53998 8.18984 5.75283C8.2348 5.91849 8.29737 6.07269 8.37738 6.21527C8.56612 6.5413 8.83214 6.79278 9.17525 6.97006ZM14.1692 7.11589C14.2721 7.18462 14.395 7.21881 14.5381 7.21881C14.6867 7.21881 14.8125 7.18171 14.9154 7.10735C15.0185 7.03298 15.0985 6.91861 15.1556 6.76423L16.0116 4.45028L16.8885 6.77278C16.9456 6.92151 17.0258 7.03298 17.1287 7.10735C17.2372 7.18171 17.3631 7.21881 17.5062 7.21881C17.6491 7.21881 17.772 7.18171 17.8749 7.10735C17.9361 7.06546 17.9891 7.01178 18.0339 6.94647C18.0688 6.8957 18.0987 6.83774 18.1237 6.77278L19.359 3.59889C19.3996 3.49974 19.4206 3.40776 19.4221 3.32296C19.4225 3.30005 19.4214 3.27766 19.419 3.25577C19.4076 3.14721 19.3647 3.05849 19.2903 2.98993C19.2159 2.9212 19.1103 2.88701 18.973 2.88701C18.8643 2.88701 18.7643 2.91556 18.6728 2.97266C18.587 3.02994 18.5155 3.13576 18.4582 3.29014L17.5021 5.92361L16.5368 3.24723C16.4968 3.12704 16.4366 3.03848 16.3566 2.98121C16.3064 2.94189 16.2472 2.91488 16.179 2.90018C16.1385 2.89146 16.0947 2.88701 16.0479 2.88701C15.922 2.88701 15.8191 2.91556 15.7389 2.97266C15.6983 3.00412 15.6618 3.04566 15.6297 3.09746C15.6032 3.14038 15.5796 3.1903 15.5589 3.24723L14.5858 5.90207L13.6459 3.31578C13.5888 3.14995 13.52 3.03848 13.44 2.98121C13.3869 2.9395 13.3236 2.91163 13.2503 2.89761C13.2132 2.8906 13.1735 2.88701 13.1313 2.88701C12.9884 2.88701 12.874 2.91847 12.7882 2.98121C12.7439 3.01369 12.708 3.05216 12.6805 3.09695C12.6546 3.13884 12.6362 3.18602 12.6251 3.23868C12.608 3.3416 12.6251 3.46161 12.6767 3.59889L13.9204 6.77278C13.9834 6.92715 14.0663 7.04153 14.1692 7.11589Z" fill="black" fill-opacity="0.9"/>
</g>
</svg>
