<svg width="11" height="10" viewBox="0 0 11 10" fill="none" xmlns="http://www.w3.org/2000/svg">
<path id="Union" d="M5.46177 0.157179C5.39369 -0.052393 5.09727 -0.052393 5.02919 0.157179L3.94679 3.48834C3.91636 3.58208 3.82906 3.64549 3.73044 3.64549H0.227799C0.00756532 3.64549 -0.08406 3.92748 0.0941929 4.05698L2.9278 6.11571C3.00754 6.17369 3.04086 6.27631 3.01043 6.37004L1.92814 9.70121C1.85995 9.91078 2.09984 10.085 2.2781 9.95554L5.11182 7.89669C5.19156 7.83883 5.2994 7.83883 5.37914 7.89669L8.21286 9.95554C8.39112 10.085 8.63101 9.91078 8.56282 9.70121L7.48053 6.37004C7.4501 6.27631 7.48341 6.17369 7.56316 6.11571L10.3968 4.05698C10.575 3.92748 10.4834 3.64549 10.2632 3.64549H6.76052C6.6619 3.64549 6.5746 3.58208 6.54417 3.48834L5.46177 0.157179Z" fill="#FAC515"/>
</svg>
