<svg width="8" height="10" viewBox="0 0 8 10" fill="none" xmlns="http://www.w3.org/2000/svg">
<path id="Subtract" d="M4.19233 9.95459C5.73844 9.60849 6.94561 8.30573 7.12174 6.6991C7.21257 5.86996 7.01128 4.24447 6.08383 3.20205C6.31737 4.32299 5.92975 5.41052 5.73135 5.4504C5.72317 5.38209 5.71717 5.31252 5.71102 5.24047C5.67183 4.78438 5.62424 4.22858 4.94645 3.26289C3.69776 1.80325 3.29004 0.764797 3.71949 0C3.45768 0 2.0845 0.931185 2.14402 2.23745C2.20345 3.54371 1.77961 4.31567 1.4709 4.55388C1.56602 3.63976 0.904355 3.10787 0.582639 2.84933L0.550701 2.82362C0.751599 3.33588 0.550701 3.99528 0.343494 4.67532C0.190114 5.17846 0.0333065 5.6929 0.0333065 6.16745C-0.230688 8.43395 1.11094 9.74746 2.77226 10C2.68587 9.92545 2.11363 9.41211 1.95293 8.76019C1.70086 7.73747 2.02818 7.18409 2.02818 7.18409C2.14098 7.74604 2.39313 7.91804 2.52984 8.01128C2.55298 8.02709 2.57284 8.04065 2.58811 8.05342C2.3964 6.54198 2.70207 5.73099 3.71092 5.01511C3.59034 6.02108 3.95373 6.41571 4.22614 6.71148C4.30208 6.7939 4.37095 6.86868 4.42026 6.94689C5.51027 8.49269 4.42633 9.7191 4.19233 9.95459Z" fill="#FF5614"/>
</svg>
