<svg width="12" height="10" viewBox="0 0 12 10" fill="none" xmlns="http://www.w3.org/2000/svg">
<g id="Vector">
<path d="M7.01647 0L9.8259 0.157007L11.2812 2.68209L8.49206 2.49486L7.01647 0Z" fill="#17C7FF"/>
<path d="M6.72563 0.0302645L5.19581 2.49989L6.7021 5.03157L8.22736 2.56932L6.72563 0.0302645Z" fill="#17C7FF"/>
<path d="M9.79428 5.32449L11.2655 2.94478L8.43181 2.74147L7.01469 5.03372C7.25367 4.96249 7.50687 4.92424 7.76899 4.92424C8.24507 4.92424 8.69168 5.05042 9.07719 5.27116L9.79428 5.32449Z" fill="#17C7FF"/>
<path d="M0.502336 5.53943L2.98331 4.2119L5.53987 5.6112L3.06047 6.90239L0.502336 5.53943Z" fill="#17C7FF"/>
<path d="M0.269703 5.71658L0.248047 8.62157L2.85156 10L2.87315 7.10369L0.269703 5.71658Z" fill="#17C7FF"/>
<path d="M5.66219 5.97533L5.66306 5.84375L3.13731 7.14434L3.11901 9.93367L5.41875 8.75704C5.23565 8.39802 5.1324 7.99149 5.1324 7.56083C5.1324 6.96568 5.32959 6.41659 5.66219 5.97533Z" fill="#17C7FF"/>
<path d="M7.76911 7.2865L6.76866 6.28605L6.30979 6.74492L7.31024 7.74537L6.30979 8.74582L6.76866 9.20469L7.76911 8.20424L8.76956 9.20469L9.22843 8.74582L8.22798 7.74537L9.22843 6.74492L8.76956 6.28605L7.76911 7.2865Z" fill="#17C7FF"/>
</g>
</svg>
