<svg width="12" height="10" viewBox="0 0 12 10" fill="none" xmlns="http://www.w3.org/2000/svg">
<g id="Group 122">
<g id="Union">
<path d="M4.54542 7.0438C5.32968 7.0438 6.80295 6.62316 8.0416 5.83761C7.89474 5.53395 7.81241 5.19326 7.81241 4.83333C7.81241 3.55782 8.84642 2.52381 10.1219 2.52381C10.1271 2.52381 10.1323 2.52383 10.1375 2.52386C10.0284 1.11185 8.84576 0 7.40285 0C4.75248 0.108688 3.21502 4.08636 3.19266 5.62335L1.84997 6.91557C1.69352 6.83427 1.51568 6.78832 1.32709 6.78832C0.700947 6.78832 0.193359 7.29486 0.193359 7.91971C0.193359 8.5124 0.778664 8.88009 1.36003 8.92857C1.4458 9.4686 1.78583 10 2.3511 10C2.97724 10 3.48483 9.49346 3.48483 8.86861C3.48483 8.63666 3.41488 8.42101 3.29489 8.24152L4.53939 7.0438L4.54542 7.0438Z" fill="#00B372"/>
<path d="M9.24098 3.54832L8.83692 3.95238L9.71787 4.83333L8.83692 5.71429L9.24098 6.11835L10.1219 5.23739L11.0029 6.11835L11.4069 5.71429L10.526 4.83333L11.4069 3.95238L11.0029 3.54832L10.1219 4.42927L9.24098 3.54832Z" fill="#00B372"/>
</g>
</g>
</svg>
